<?xml version="1.0" encoding="UTF-8" standalone="no"?>
<!-- Created with Inkscape (http://www.inkscape.org/) -->

<svg
   width="70.809662"
   height="118.64433"
   viewBox="0 0 18.735057 31.391315"
   version="1.1"
   id="svg1615"
   xmlns="http://www.w3.org/2000/svg"
   xmlns:svg="http://www.w3.org/2000/svg">
  <defs
     id="defs1612" />
  <path
     d="m 8.7488857,22.015952 c -2.000752,1.708578 -4.00244,3.418003 -6.004225,5.126218 -0.7303929,0.62452 0.128441,1.85749 0.863753,1.229472 2.001163,-1.70963 4.002453,-3.418037 6.003603,-5.127634 0.7305333,-0.623328 -0.127819,-1.856074 -0.863131,-1.228056"
     style="fill:#000000;fill-opacity:1;fill-rule:nonzero;stroke:none;stroke-width:0.352778"
     id="path2596" />
  <path
     d="m 0.01662226,5.3720117 c -0.0082,0.6104101 -0.175648,14.9804313 0.760941,18.5609113 0.60325014,2.30745 2.01605544,7.71042 9.01213244,7.44925 6.2468823,-0.23248 8.5138683,-5.58782 8.5138683,-9.13144 0,-3.28499 0.427601,-16.6144912 0.431165,-16.7486513 0.01383,-0.44041 -0.411198,-0.80807 -0.948373,-0.81883 -0.538692,-0.0118 -0.987284,0.33591 -1.001113,0.77685 -0.0041,0.1346501 -0.431165,13.4851413 -0.431165,16.7906313 0,2.8175 -1.806116,7.35605 -6.6534933,7.53579 -4.437169,0.16592 -6.014897,-2.35352 -7.017068,-6.188 C 1.7930344,20.189593 1.9645554,5.5363717 1.9661074,5.3889117 c 0.0056,-0.44143 -0.427602,-0.80243 -0.96527,-0.8075499 -0.53819814,-0.004 -0.97860614,0.3497499 -0.98421514,0.7906499"
     style="fill:#000000;fill-opacity:1;fill-rule:nonzero;stroke:none;stroke-width:0.352778"
     id="path242" />
  <path
     d="m 7.4007827,0.6689166 h 4.6064753 v 2.8292931 h 0.668956 V 0 H 6.7318657 v 3.4982097 h 0.668917 z"
     style="fill:#000000;fill-opacity:1;fill-rule:nonzero;stroke:none;stroke-width:0.352778"
     id="path31081" />
</svg>
