<?xml version="1.0" encoding="UTF-8" standalone="no"?>
<!-- Created with Inkscape (http://www.inkscape.org/) -->

<svg
   width="85.019478"
   height="97.171036"
   viewBox="0 0 22.494736 25.709837"
   version="1.1"
   id="svg1615"
   xmlns="http://www.w3.org/2000/svg"
   xmlns:svg="http://www.w3.org/2000/svg">
  <defs
     id="defs1612" />
  <path
     d="m 17.253539,22.981073 c 0.0081,-0.202918 0.08007,-2.28667 0.08007,-4.988771 0,-2.901527 -0.0846,-6.513583 -0.425009,-9.280666 C 16.640199,7.038799 16.873346,8.462857 16.640199,7.038799 16.583296,6.754284 16.526897,6.467758 16.460931,6.222013 15.338488,2.035387 12.170568,0 6.777937,0 4.412209,0 2.447307,0.735718 1.243277,2.071653 0.313178,3.103951 -0.118869,4.446447 0.028169,5.851913 c 0.305682,2.931725 3.691114,5.236034 7.875729,5.360423 2.460907,0.0725 5.156976,-0.679838 7.497031,-1.742334 0.273939,2.588295 0.348467,5.85844 0.348467,8.536905 0,2.754453 -0.07453,4.866428 -0.07604,4.916769 v 0.02921 c 0,0.422981 0.335372,0.773959 0.761386,0.789094 0.437093,0.01661 0.803685,-0.324803 0.818795,-0.760907 M 6.777937,1.581186 c 4.703762,0 7.219061,1.557514 8.155689,5.050719 0.09316,0.345969 0.174234,0.748806 0.248758,1.181876 -2.229778,1.07308 -4.882526,1.887361 -7.231673,1.81737 C 4.610082,9.532441 1.820845,7.800199 1.599794,5.688754 1.499605,4.720414 1.782604,3.834624 2.417074,3.129633 3.317434,2.132083 4.865387,1.581186 6.777937,1.581186"
     style="fill:#000000;fill-opacity:1;fill-rule:nonzero;stroke:none;stroke-width:0.352778"
     id="path31047" />
  <path
     d="m 12.659377,25.706211 c 0.472853,0.04332 0.892824,-0.30667 0.936131,-0.780521 0.01762,-0.195897 0.438101,-4.824624 0.411914,-7.179804 -0.02568,-2.38386 -0.570537,-5.458107 -0.592691,-5.587506 -0.08359,-0.468841 -0.532786,-0.78052 -1.001099,-0.697441 -0.467783,0.0841 -0.779991,0.531742 -0.695925,1.000054 0.0041,0.03023 0.542361,3.065216 0.566032,5.303026 0.02515,2.268044 -0.401355,6.957236 -0.405377,7.004544 -0.04332,0.473851 0.30667,0.893833 0.781015,0.937648"
     style="fill:#000000;fill-opacity:1;fill-rule:nonzero;stroke:none;stroke-width:0.352778"
     id="path31049" />
  <path
     d="M 22.011195,14.845277 H 7.351483 c -0.70799,0 -0.816787,1.100773 -0.104246,1.100773 h 14.659719 c 0.708512,0 0.816275,-1.100773 0.104239,-1.100773"
     style="fill:#000000;fill-opacity:1;fill-rule:nonzero;stroke:none;stroke-width:0.352778"
     id="path31051" />
  <path
     d="M 22.011195,18.063633 H 7.351483 c -0.70799,0 -0.816787,1.101796 -0.104246,1.101796 h 14.659719 c 0.708512,0 0.816275,-1.101796 0.104239,-1.101796"
     style="fill:#000000;fill-opacity:1;fill-rule:nonzero;stroke:none;stroke-width:0.352778"
     id="path31053" />
</svg>
