<?xml version="1.0" encoding="UTF-8" standalone="no"?>
<!-- Created with Inkscape (http://www.inkscape.org/) -->

<svg
   width="93.841156"
   height="98.617249"
   viewBox="0 0 24.828807 26.09248"
   version="1.1"
   id="svg1615"
   xmlns="http://www.w3.org/2000/svg"
   xmlns:svg="http://www.w3.org/2000/svg">
  <defs
     id="defs1612" />
  <path
     d="m 6.3787164,1.5180849 c -0.009,0.217206 -0.08562,2.445032 -0.08562,5.33474 0,3.101834 0.09006,6.9652461 0.454237,9.9239581 C 5.9225384,17.229114 5.1603277,17.704447 4.5016207,18.18553 1.6157577,20.288756 0.217206,22.214394 0.159068,22.296802 0.051118,22.44504 0,22.617548 0,22.788116 c 0,0.261938 0.122026,0.5207 0.350732,0.686188 0.3788827,0.273438 0.9066037,0.187184 1.1800417,-0.190394 0.01277,-0.01789 1.317413,-1.801036 3.96688,-3.733059 0.4530017,-0.330306 0.9800867,-0.660612 1.5365587,-0.985167 0.06068,0.304094 0.120756,0.610764 0.192299,0.873371 1.199833,4.476715 4.5872736,6.653425 10.3545556,6.653425 2.528746,0 4.630067,-0.786483 5.917424,-2.215057 0.995398,-1.103982 1.456055,-2.539576 1.300797,-4.042904 -0.327765,-3.134395 -3.947724,-5.597983 -8.423169,-5.732145 -2.632251,-0.07733 -5.514305,0.72704 -8.0168386,1.863655 -0.292629,-2.768353 -0.372498,-6.2650171 -0.372498,-9.1285141 0,-2.946576 0.07987,-5.203789 0.08114,-5.258117 v -0.03193 c 0,-0.451697 -0.357752,-0.82673497 -0.813929,-0.84271596 -0.467677,-0.01852 -0.859331,0.34755696 -0.875277,0.81332896 M 17.581068,24.401334 c -5.030646,0 -7.7197646,-1.66497 -8.7221826,-5.399935 -0.09902,-0.370557 -0.186549,-0.801158 -0.264512,-1.264355 2.3837176,-1.14748 5.2197686,-2.018912 7.7325346,-1.943524 3.572051,0.10541 6.555069,1.957564 6.790796,4.216048 0.10735,1.035014 -0.196145,1.981235 -0.874642,2.735756 -0.962166,1.067576 -2.618176,1.65601 -4.661994,1.65601"
     style="fill:#000000;fill-opacity:1;fill-rule:nonzero;stroke:none;stroke-width:0.352778"
     id="path36823-2" />
  <path
     d="m 10.917202,0.00350493 c -0.463833,-0.04216 -0.875912,0.300919 -0.9174332,0.765421 -0.01789,0.192935 -0.430636,4.73163097 -0.40379,7.04186697 0.02427,2.3370841 0.5583762,5.3526631 0.5807422,5.4798041 0.08177,0.459987 0.522005,0.765387 0.981357,0.684248 0.458717,-0.08241 0.764752,-0.521335 0.682978,-0.980687 -0.0045,-0.03006 -0.532201,-3.0066551 -0.555202,-5.2018861 -0.02491,-2.223981 0.392924,-6.82339097 0.39804,-6.86875797 0.04152,-0.465103 -0.301555,-0.876547 -0.766692,-0.920009"
     style="fill:#000000;fill-opacity:1;fill-rule:nonzero;stroke:none;stroke-width:0.352778"
     id="path36825" />
  <path
     d="M 1.0303405,6.6868015 H 16.779456 c 0.760805,0 0.877665,-1.183289 0.112029,-1.183289 H 1.1423703 c -0.7607776,0 -0.8772194,1.183289 -0.1120298,1.183289"
     style="fill:#000000;fill-opacity:1;fill-rule:nonzero;stroke:none;stroke-width:0.352778"
     id="path2606" />
</svg>
