<?xml version="1.0" encoding="UTF-8" standalone="no"?>
<!-- Created with Inkscape (http://www.inkscape.org/) -->

<svg
   width="85.372871"
   height="118.63726"
   viewBox="0 0 22.58824 31.389444"
   version="1.1"
   id="svg1615"
   xmlns="http://www.w3.org/2000/svg"
   xmlns:svg="http://www.w3.org/2000/svg">
  <defs
     id="defs1612" />
  <path
     id="path2606"
     style="fill:#000000;fill-opacity:1;fill-rule:nonzero;stroke:none;stroke-width:0.352777"
     d="m 0.58671686,12.264885 c -0.70666853,0 -0.815153,1.099158 -0.10438634,1.099158 H 4.0573063 15.111412 18.686388 c 0.706694,0 0.815051,-1.099158 0.10387,-1.099158 H 15.215282 4.1611759 Z" />
  <path
     d="m 6.1524845,7.6479909 c 0.426015,0.01461 0.761894,0.366571 0.761894,0.789058 v 0.02974 c -0.0014,0.04932 -0.07652,2.1612581 -0.07652,4.9167701 0,2.677936 0.075,5.947587 0.348438,8.536376 2.340575,-1.063026 5.0371385,-1.815818 7.4980445,-1.742828 4.184616,0.124389 7.569554,2.429192 7.87573,5.360952 0.147038,1.405432 -0.285009,2.747433 -1.215108,3.779732 -1.203995,1.336428 -3.168897,2.071652 -5.53466,2.071652 -5.392632,0 -8.5610355,-2.035422 -9.6835035,-6.221518 -0.06646,-0.245745 -0.122343,-0.532765 -0.179247,-0.817281 -0.233644,-1.42307 0,0 -0.268922,-1.673331 -0.340395,-2.76606 -0.424498,-6.378645 -0.424498,-9.279643 0,-2.702137 0.072,-4.7853601 0.07955,-4.9888071 0.01513,-0.436069 0.381705,-0.777487 0.818797,-0.760872 M 20.171169,28.260303 c 0.634506,-0.705485 0.917504,-1.591275 0.81728,-2.559614 -0.22105,-2.110917 -3.010288,-3.843197 -6.350918,-3.942398 -2.34964,-0.06999 -5.0018945,0.744291 -7.2321565,1.817864 0.07401,0.433564 0.155575,0.835907 0.24825,1.18237 0.936625,3.493206 3.4529195,5.049732 8.1566815,5.049732 1.912056,0 3.459974,-0.54991 4.360863,-1.547954"
     style="fill:#000000;fill-opacity:1;fill-rule:nonzero;stroke:none;stroke-width:0.352778"
     id="path31063" />
  <path
     d="m 9.1490495,0.0327526 c -0.919515,0.5156553 -1.839524,1.0302876 -2.759534,1.5459428 -0.195368,0.1087614 -0.182774,0.4713465 0.08259,0.4713465 H 13.759684 C 13.713854,1.9044857 13.668524,1.7594588 13.622206,1.6129502 12.73945,2.2020891 11.8562,2.7907694 10.971962,3.3799436 c -0.265399,0.1772355 0.05789,0.5549194 0.322752,0.3786716 0.882757,-0.5886803 1.766007,-1.1773253 2.649257,-1.7660056 0.175224,-0.1173339 0.0695,-0.4370917 -0.137478,-0.4370917 H 6.5199375 c 0.0272,0.1571273 0.05539,0.3147484 0.08259,0.4713465 0.920005,-0.5146323 1.840014,-1.0302876 2.760517,-1.5449198 0.2769659,-0.1556103 0.06699,-0.6062839 -0.213995,-0.449192"
     style="fill:#000000;fill-opacity:1;fill-rule:nonzero;stroke:none;stroke-width:0.352778"
     id="path31059" />
  <path
     d="m 14.836886,24.451538 c -0.917504,1.708608 -1.834479,3.416194 -2.752478,5.124767 -0.334856,0.623429 0.584624,1.24079 0.921526,0.612846 0.917505,-1.708079 1.834479,-3.416159 2.751949,-5.124274 0.334892,-0.623887 -0.58413,-1.241248 -0.920997,-0.613339"
     style="fill:#000000;fill-opacity:1;fill-rule:nonzero;stroke:none;stroke-width:0.352778"
     id="path31061" />
  <path
     d="m 9.9287944,5.6838999 c -0.4728279,-0.04332 -0.8928099,0.306141 -0.9360959,0.780521 -0.01764,0.195862 -0.438115,4.8236021 -0.412432,7.1797691 0.02519,2.382873 0.571041,5.458108 0.593195,5.587542 0.08361,0.468806 0.5327649,0.780521 1.0010785,0.696912 0.467819,-0.08357 0.780027,-0.531248 0.695925,-1.000054 -0.004,-0.03023 -0.542326,-3.065181 -0.565997,-5.30352 -0.02519,-2.26755 0.401355,-6.9572371 0.405377,-7.0035571 0.04329,-0.474839 -0.30667,-0.893833 -0.7810506,-0.937613"
     style="fill:#000000;fill-opacity:1;fill-rule:nonzero;stroke:none;stroke-width:0.352778"
     id="path31065" />
  <path
     d="m 13.514287,5.0970899 c -0.472863,-0.04332 -0.89281,0.306669 -0.936131,0.78052 -0.01764,0.195898 -0.438115,4.8246251 -0.411903,7.1798051 0.02515,2.383331 0.570512,5.458107 0.592666,5.587506 0.08361,0.468807 0.532801,0.780521 1.001113,0.697442 0.467784,-0.0841 0.779992,-0.531777 0.69589,-1.00009 -0.004,-0.0302 -0.541832,-3.06518 -0.565997,-5.302991 -0.02515,-2.268044 0.401355,-6.9572371 0.405377,-7.0045801 0.04332,-0.473851 -0.30667,-0.893797 -0.781015,-0.937612"
     style="fill:#000000;fill-opacity:1;fill-rule:nonzero;stroke:none;stroke-width:0.352778"
     id="path31067" />
</svg>
