<?xml version="1.0" encoding="UTF-8" standalone="no"?>
<!-- Created with Inkscape (http://www.inkscape.org/) -->

<svg
   width="101.21081"
   height="123.53574"
   viewBox="0 0 26.778694 32.685501"
   version="1.1"
   id="svg1615"
   xmlns="http://www.w3.org/2000/svg"
   xmlns:svg="http://www.w3.org/2000/svg">
  <defs
     id="defs1612" />
  <path
     d="m 12.98793,23.310137 c -2.000752,1.708578 -4.00244,3.418003 -6.0042248,5.126218 -0.7303927,0.62452 0.1284408,1.85749 0.8637534,1.229472 2.0011625,-1.70963 4.0024524,-3.418037 6.0036024,-5.127634 0.730534,-0.623328 -0.127819,-1.856074 -0.863131,-1.228056"
     style="fill:#000000;fill-opacity:1;fill-rule:nonzero;stroke:none;stroke-width:0.352778"
     id="path2596" />
  <path
     d="m 4.2556671,6.666198 c -0.0082,0.61041 -0.175648,14.98043 0.760941,18.56091 0.60325,2.30745 2.016055,7.71042 9.0121319,7.44925 6.246883,-0.23248 8.513869,-5.58782 8.513869,-9.13144 0,-3.28499 0.427601,-16.61449 0.431165,-16.74865 0.01383,-0.44041 -0.411198,-0.80807 -0.948373,-0.81883 -0.538692,-0.0118 -0.987284,0.33591 -1.001113,0.77685 -0.0041,0.13465 -0.431165,13.48514 -0.431165,16.79063 0,2.8175 -1.806116,7.35605 -6.653494,7.53579 -4.4371687,0.16592 -6.0148969,-2.35352 -7.0170679,-6.188 -0.890482,-3.40893 -0.718961,-18.06215 -0.717409,-18.20961 0.0056,-0.44143 -0.427602,-0.80243 -0.96527,-0.80755 -0.538198,-0.004 -0.978606,0.34975 -0.984215,0.79065"
     style="fill:#000000;fill-opacity:1;fill-rule:nonzero;stroke:none;stroke-width:0.352778"
     id="path242" />
  <path
     d="M 0.8230331,13.137838 H 25.777792 c 1.205442,0 1.390827,-1.48403 0.177695,-1.48403 H 1.0001981 c -1.205441,0 -1.389274,1.48403 -0.177165,1.48403"
     style="fill:#000000;fill-opacity:1;fill-rule:nonzero;stroke:none;stroke-width:0.352778"
     id="path246" />
  <path
     d="M 12.552923,0.03685603 C 11.518368,0.61588603 10.483811,1.1953854 9.4497243,1.7748839 9.2305302,1.8974274 9.2443964,2.3053365 9.5431543,2.3053365 H 17.736757 C 17.684987,2.141604 17.633624,1.977901 17.581852,1.8137286 16.588455,2.475988 15.595997,3.1382769 14.6026,3.8005363 c -0.299227,0.1993233 0.06473,0.6238842 0.361201,0.4259397 0.993367,-0.6622594 1.986764,-1.3240798 2.98016,-1.9863392 0.196534,-0.1313669 0.07678,-0.491168 -0.154934,-0.491168 H 9.5954243 c 0.03189,0.176661 0.06241,0.3537915 0.09387,0.530482 1.0350247,-0.5794994 2.0695517,-1.1585294 3.1031987,-1.73802877 0.312625,-0.1748137 0.07631,-0.6812271 -0.239569,-0.504566"
     style="fill:#000000;fill-opacity:1;fill-rule:nonzero;stroke:none;stroke-width:0.352777"
     id="path246-3" />
</svg>
