<?xml version="1.0" encoding="UTF-8" standalone="no"?>
<!-- Created with Inkscape (http://www.inkscape.org/) -->

<svg
   width="116.11641"
   height="161.5275"
   viewBox="0 0 30.722467 42.737484"
   version="1.1"
   id="svg1615"
   xmlns="http://www.w3.org/2000/svg"
   xmlns:svg="http://www.w3.org/2000/svg">
  <defs
     id="defs1612" />
  <path
     d="M 0.65621596,18.220945 H 20.553165 c 0.961178,0 1.108816,-1.494931 0.141535,-1.494931 H 0.79775096 c -0.961143,0 -1.108252,1.494931 -0.141535,1.494931"
     style="fill:#000000;fill-opacity:1;fill-rule:nonzero;stroke:none;stroke-width:0.352778"
     id="path2606" />
  <path
     d="m 7.3050194,11.546742 c -0.01058,0.275837 -0.10862,3.103598 -0.10862,6.771076 0,3.937705 0.114758,8.84047 0.576686,12.595966 0.364419,2.270583 0.04791,0.338208 0.364419,2.270583 0.07743,0.386116 0.153776,0.775053 0.243487,1.108252 1.523365,5.682297 5.8227026,8.444865 13.1420306,8.444865 3.211124,0 5.877877,-0.998502 7.511556,-2.811039 1.262627,-1.401339 1.848767,-3.223931 1.649871,-5.131224 -0.415678,-3.979509 -5.010326,-7.106496 -10.689837,-7.275336 -3.339818,-0.0986 -6.999499,0.922161 -10.1755216,2.364775 -0.371087,-3.513137 -0.472475,-7.951223 -0.472475,-11.586351 0,-3.738809 0.101388,-6.605023 0.103081,-6.673532 v -0.04015 c 0,-0.573335 -0.455224,-1.05029 -1.033603,-1.070928 -0.593408,-0.02229 -1.090436,0.440761 -1.111074,1.033039 M 21.523022,40.591709 c -6.383796,0 -9.798297,-2.113421 -11.069285,-6.855178 -0.126471,-0.469723 -0.236784,-1.016317 -0.337079,-1.604151 3.026128,-1.455949 6.626154,-2.561449 9.814454,-2.466728 4.534465,0.133738 8.320052,2.485108 8.619843,5.351321 0.135925,1.314415 -0.247968,2.516294 -1.108851,3.472992 -1.222481,1.353996 -3.323661,2.101744 -5.919082,2.101744"
     style="fill:#000000;fill-opacity:1;fill-rule:nonzero;stroke:none;stroke-width:0.352778"
     id="path2610" />
  <path
     d="m 13.540966,7.8481498 c -0.642444,-0.05853 -1.211898,0.416207 -1.270423,1.059215 -0.02452,0.265783 -0.595066,6.5481902 -0.559435,9.7442512 0.03457,3.235643 0.773959,7.408475 0.804051,7.584546 0.114229,0.635776 0.723229,1.059251 1.358441,0.946679 0.635776,-0.114229 1.05978,-0.722101 0.94555,-1.357312 -0.0061,-0.04124 -0.7366,-4.161155 -0.76835,-7.197866 -0.03401,-3.078516 0.543807,-9.4428032 0.549946,-9.5074322 0.05849,-0.643008 -0.415678,-1.212462 -1.05978,-1.272081"
     style="fill:#000000;fill-opacity:1;fill-rule:nonzero;stroke:none;stroke-width:0.352778"
     id="path2612" />
  <path
     d="m 9.4785194,0.04455974 c -1.253173,0.701498 -2.507016,1.40437296 -3.761529,2.10654196 -0.266065,0.148484 -0.249272,0.643043 0.112889,0.643043 h 9.9333046 c -0.06315,-0.198226 -0.124954,-0.397122 -0.187466,-0.595348 -1.203431,0.802323 -2.407567,1.60528 -3.612338,2.408238 -0.362197,0.241229 0.0786,0.755262 0.439455,0.516078 1.20276,-0.802992 2.406897,-1.60595 3.610998,-2.408237 0.238548,-0.159279 0.09476,-0.594678 -0.187466,-0.594678 H 5.8950734 c 0.03693,0.213678 0.07525,0.428696 0.112889,0.642373 1.253842,-0.702169 2.507685,-1.403702 3.762198,-2.10654196 0.3776136,-0.212336 0.09137,-0.825147 -0.291641,-0.611469"
     style="fill:#000000;fill-opacity:1;fill-rule:nonzero;stroke:none;stroke-width:0.352778"
     id="path84" />
</svg>
