<?xml version="1.0" encoding="UTF-8" standalone="no"?>
<!-- Created with Inkscape (http://www.inkscape.org/) -->

<svg
   width="70.809662"
   height="101.32907"
   viewBox="0 0 18.735057 26.809985"
   version="1.1"
   id="svg1615"
   xmlns="http://www.w3.org/2000/svg"
   xmlns:svg="http://www.w3.org/2000/svg">
  <defs
     id="defs1612" />
  <path
     d="m 8.7488852,17.434623 c -2.000752,1.708578 -4.00244,3.418003 -6.0042248,5.126218 -0.7303927,0.62452 0.1284408,1.85749 0.8637534,1.229472 2.0011625,-1.70963 4.0024524,-3.418037 6.0036024,-5.127634 0.7305338,-0.623328 -0.127819,-1.856074 -0.863131,-1.228056"
     style="fill:#000000;fill-opacity:1;fill-rule:nonzero;stroke:none;stroke-width:0.352778"
     id="path2596" />
  <path
     d="m 0.01662226,0.79068359 c -0.0082,0.61041001 -0.175648,14.98043041 0.760941,18.56091041 0.60325004,2.30745 2.01605504,7.71042 9.01213194,7.44925 6.2468828,-0.23248 8.5138688,-5.58782 8.5138688,-9.13144 0,-3.28499 0.427601,-16.6144904 0.431165,-16.74865041 0.01383,-0.44041 -0.411198,-0.80807 -0.948373,-0.81883 -0.538692,-0.0118 -0.987284,0.33591 -1.001113,0.77685 -0.0041,0.13465001 -0.431165,13.48514041 -0.431165,16.79063041 0,2.8175 -1.806116,7.35605 -6.6534938,7.53579 -4.4371687,0.16592 -6.0148969,-2.35352 -7.0170679,-6.188 -0.890482,-3.40893 -0.718961,-18.06215041 -0.717409,-18.20961041 0.0056,-0.44143 -0.427602,-0.80243 -0.96527,-0.807549999592 C 0.46263926,-0.00396641 0.02223126,0.34978359 0.01662226,0.79068359"
     style="fill:#000000;fill-opacity:1;fill-rule:nonzero;stroke:none;stroke-width:0.352778"
     id="path242" />
</svg>
