<?xml version="1.0" encoding="UTF-8" standalone="no"?>
<!-- Created with Inkscape (http://www.inkscape.org/) -->

<svg
   width="116.11641"
   height="161.5275"
   viewBox="0 0 30.722467 42.737484"
   version="1.1"
   id="svg1615"
   xmlns="http://www.w3.org/2000/svg"
   xmlns:svg="http://www.w3.org/2000/svg">
  <defs
     id="defs1612" />
  <path
     d="M 0.65621596,18.220945 H 20.553165 c 0.961178,0 1.108816,-1.494931 0.141535,-1.494931 H 0.79775096 c -0.961143,0 -1.108252,1.494931 -0.141535,1.494931"
     style="fill:#000000;fill-opacity:1;fill-rule:nonzero;stroke:none;stroke-width:0.352778"
     id="path2606" />
  <path
     d="m 20.201975,33.321422 c -1.244777,2.317961 -2.490117,4.636981 -3.736023,6.954943 -0.454095,0.846914 0.793468,1.684408 1.250915,0.83245 1.245341,-2.319056 2.490117,-4.636982 3.734894,-6.956037 0.45466,-0.84582 -0.792339,-1.683315 -1.249786,-0.831356"
     style="fill:#000000;fill-opacity:1;fill-rule:nonzero;stroke:none;stroke-width:0.352778"
     id="path2608" />
  <path
     d="m 7.305019,11.546742 c -0.01058,0.275837 -0.10862,3.103598 -0.10862,6.771076 0,3.937705 0.114758,8.84047 0.576686,12.595966 0.364419,2.270583 0.04791,0.338208 0.364419,2.270583 0.07743,0.386116 0.153776,0.775053 0.243487,1.108252 1.523365,5.682297 5.822703,8.444865 13.142031,8.444865 3.211124,0 5.877877,-0.998502 7.511556,-2.811039 1.262627,-1.401339 1.848767,-3.223931 1.649871,-5.131224 C 30.268771,30.815712 25.674123,27.688725 19.994612,27.519885 16.654794,27.421285 12.995113,28.442046 9.81909,29.88466 9.448003,26.371523 9.346615,21.933437 9.346615,18.298309 c 0,-3.738809 0.101388,-6.605023 0.103081,-6.673532 v -0.04015 c 0,-0.573335 -0.455224,-1.05029 -1.033603,-1.070928 -0.593408,-0.02229 -1.090436,0.440761 -1.111074,1.033039 m 14.218003,29.044971 c -6.383796,0 -9.798297,-2.113421 -11.069285,-6.855178 -0.126471,-0.469723 -0.236784,-1.016317 -0.337079,-1.604151 3.026128,-1.455949 6.626154,-2.561449 9.814454,-2.466728 4.534465,0.133738 8.320052,2.485108 8.619843,5.351321 0.135925,1.314415 -0.247968,2.516294 -1.108851,3.472992 -1.222481,1.353996 -3.323661,2.101744 -5.919082,2.101744"
     style="fill:#000000;fill-opacity:1;fill-rule:nonzero;stroke:none;stroke-width:0.352778"
     id="path2610" />
  <path
     d="m 13.540966,7.8481498 c -0.642444,-0.05853 -1.211898,0.416207 -1.270423,1.059215 -0.02452,0.265783 -0.595066,6.5481902 -0.559435,9.7442512 0.03457,3.235643 0.773959,7.408475 0.804051,7.584546 0.114229,0.635776 0.723229,1.059251 1.358441,0.946679 0.635776,-0.114229 1.05978,-0.722101 0.94555,-1.357312 -0.0061,-0.04124 -0.7366,-4.161155 -0.76835,-7.197866 -0.03401,-3.078516 0.543807,-9.4428032 0.549946,-9.5074322 0.05849,-0.643008 -0.415678,-1.212462 -1.05978,-1.272081"
     style="fill:#000000;fill-opacity:1;fill-rule:nonzero;stroke:none;stroke-width:0.352778"
     id="path2612" />
  <path
     d="M 9.478519,0.04455974 C 8.225346,0.74605774 6.971503,1.4489327 5.71699,2.1511017 5.450925,2.2995857 5.467718,2.7941447 5.829879,2.7941447 h 9.933305 c -0.06315,-0.198226 -0.124954,-0.397122 -0.187466,-0.595348 -1.203431,0.802323 -2.407567,1.60528 -3.612338,2.408238 -0.362197,0.241229 0.0786,0.755262 0.439455,0.516078 1.20276,-0.802992 2.406897,-1.60595 3.610998,-2.408237 0.238548,-0.159279 0.09476,-0.594678 -0.187466,-0.594678 H 5.895073 c 0.03693,0.213678 0.07525,0.428696 0.112889,0.642373 1.253842,-0.702169 2.507685,-1.403702 3.762198,-2.10654196 0.377614,-0.212336 0.09137,-0.825147 -0.291641,-0.611469"
     style="fill:#000000;fill-opacity:1;fill-rule:nonzero;stroke:none;stroke-width:0.352778"
     id="path84" />
</svg>
