<?xml version="1.0" encoding="UTF-8" standalone="no"?>
<!-- Created with Inkscape (http://www.inkscape.org/) -->

<svg
   width="96.91613"
   height="110.08622"
   viewBox="0 0 25.642392 29.12698"
   version="1.1"
   id="svg1615"
   xmlns="http://www.w3.org/2000/svg"
   xmlns:svg="http://www.w3.org/2000/svg">
  <defs
     id="defs1612" />
  <g
     id="layer1"
     transform="translate(-36.177354,-61.513212)">
    <g
       id="g1350"
       style="fill:#000000"
       transform="matrix(-0.35277777,0,0,-0.35277777,281.00674,206.38543)">
      <path
         d="m 678.9649,408.227 c 0.0232,-1.8798 0.5414,-46.1338 -2.3458,-57.1614 -1.8551,-7.1069 -6.2054,-23.7463 -27.7555,-22.9406 -19.2376,0.7156 -26.2153,17.2083 -26.2153,28.1212 0,10.1175 -1.3166,51.1665 -1.3297,51.5802 -0.045,1.3572 1.2643,2.4879 2.9191,2.5228 1.6592,0.0363 3.0396,-1.0364 3.0846,-2.3937 0.0102,-0.4151 1.3297,-41.5294 1.3297,-51.7093 0,-8.6775 5.5595,-22.6546 20.486,-23.2077 13.6651,-0.5109 18.5278,7.2477 21.6124,19.0562 2.7449,10.4993 2.2151,55.6271 2.2108,56.08 -0.0175,1.3602 1.3136,2.4721 2.9713,2.4866 1.6563,0.013 3.0149,-1.0756 3.0324,-2.4343"
         style="fill:#000000;fill-opacity:1;fill-rule:nonzero;stroke:none"
         id="path192" />
      <path
         d="m 693.3385,351.3965 h -20.1507 c -0.9726,0 -1.1221,4.5696 -0.1423,4.5696 h 20.1507 c 0.9755,0 1.1221,-4.5696 0.1423,-4.5696"
         style="fill:#000000;fill-opacity:1;fill-rule:nonzero;stroke:none"
         id="path194" />
    </g>
  </g>
</svg>
