<?xml version="1.0" encoding="UTF-8" standalone="no"?>
<!-- Created with Inkscape (http://www.inkscape.org/) -->

<svg
   width="76.930359"
   height="110.08622"
   viewBox="0 0 20.35449 29.12698"
   version="1.1"
   id="svg1615"
   xmlns="http://www.w3.org/2000/svg"
   xmlns:svg="http://www.w3.org/2000/svg">
  <defs
     id="defs1612" />
  <g
     id="layer1"
     transform="translate(-41.465256,-61.513211)">
    <path
       d="m 41.483017,62.372019 c -0.0082,0.663152 -0.190994,16.274979 0.827546,20.165272 0.654438,2.507156 2.189127,8.377166 9.791523,8.092933 6.786598,-0.252448 9.248175,-6.070705 9.248175,-9.920534 0,-3.569229 0.464467,-18.050404 0.469089,-18.196348 0.01588,-0.47879 -0.446017,-0.877676 -1.029794,-0.889988 -0.585329,-0.01281 -1.072303,0.365619 -1.088178,0.844444 -0.0036,0.146439 -0.469089,14.65065 -0.469089,18.241892 0,3.061229 -1.961268,7.992039 -7.227005,8.187161 -4.820744,0.180234 -6.536196,-2.556828 -7.624374,-6.722604 -0.96834,-3.70392 -0.781438,-19.624004 -0.779921,-19.783777 0.0062,-0.479849 -0.463409,-0.872102 -1.048209,-0.877218 -0.584306,-0.0046 -1.06359,0.379448 -1.069763,0.858767"
       style="fill:#000000;fill-opacity:1;fill-rule:nonzero;stroke:none;stroke-width:0.352778"
       id="path192" />
  </g>
</svg>
