<?xml version="1.0" encoding="UTF-8" standalone="no"?>
<!-- Created with Inkscape (http://www.inkscape.org/) -->

<svg
   width="110.11573"
   height="142.30641"
   viewBox="0 0 29.13442 37.651429"
   version="1.1"
   id="svg1615"
   xmlns="http://www.w3.org/2000/svg"
   xmlns:svg="http://www.w3.org/2000/svg">
  <defs
     id="defs1612" />
  <path
     d="M 0.126857,1.2075108 C 0.113977,1.5295928 0,4.8336679 0,9.1186289 0,13.719852 0.133842,19.448185 0.673409,23.83605 c 0.426185,2.653385 0.05613,0.395177 0.426185,2.653385 0.09003,0.450738 0.179456,0.905533 0.284089,1.294854 1.780058,6.639085 6.803939,9.86714 15.355764,9.86714 3.75185,0 6.867649,-1.166822 8.776894,-3.28476 1.47491,-1.637408 2.160031,-3.767037 1.926777,-5.995471 C 26.957914,23.722034 21.589727,20.068396 14.953567,19.870807 11.050906,19.755662 6.775258,20.948212 3.064365,22.633552 2.630595,18.52921 2.511922,13.343407 2.511922,9.0958399 c 0,-4.368568 0.118673,-7.7170571 0.121001,-7.7971371 v -0.04678 C 2.632923,0.58200677 2.100977,0.02490677 1.425204,9.1876775e-4 0.731899,-0.02536123 0.15081,0.51536777 0.126857,1.2075088 M 16.739447,35.144162 C 9.2801959,35.144162 5.291035,32.67429 3.805613,27.134831 3.658294,26.585316 3.529109,25.946938 3.4116,25.259488 c 3.536129,-1.701143 7.742175,-2.99247 11.467708,-2.881417 5.298056,0.156102 9.720986,2.903642 10.071749,6.252096 0.15843,1.535693 -0.289944,2.939872 -1.296019,4.05817 -1.428132,1.58246 -3.883364,2.455825 -6.915591,2.455825"
     style="fill:#000000;fill-opacity:1;fill-rule:nonzero;stroke:none;stroke-width:0.352773"
     id="path11333" />
  <path
     d="m 27.868245,4.8177579 c 0.698562,0 1.266174,0.414473 1.266174,0.924795 0,0.211029 -0.0047,5.1963511 -0.358347,7.7094731 -0.355419,2.542332 -1.563138,5.772712 -1.614608,5.909518 -0.184712,0.492224 -0.882709,0.782169 -1.557318,0.645963 -0.674608,-0.134477 -1.070949,-0.642471 -0.886202,-1.13586 0.01168,-0.03214 1.204792,-3.219867 1.538021,-5.60846 0.341379,-2.419002 0.344907,-7.4691641 0.344907,-7.5206341 0,-0.510322 0.567612,-0.924795 1.267373,-0.924795"
     style="fill:#000000;fill-opacity:1;fill-rule:nonzero;stroke:none;stroke-width:0.352773"
     id="path11337" />
</svg>
