<?xml version="1.0" encoding="UTF-8" standalone="no"?>
<!-- Created with Inkscape (http://www.inkscape.org/) -->

<svg
   width="145.38873"
   height="142.306"
   viewBox="0 0 38.466951 37.65132"
   version="1.1"
   id="svg1615"
   xmlns="http://www.w3.org/2000/svg"
   xmlns:svg="http://www.w3.org/2000/svg">
  <defs
     id="defs1612" />
  <path
     d="M 9.4592296,1.2077352 C 9.4469713,1.529956 9.3320581,4.8338874 9.3320581,9.1186544 c 0,4.6011096 0.1336636,10.3302426 0.6740869,14.7176556 C 8.7838795,24.507152 7.6519959,25.211608 6.6750556,25.92573 2.39743,29.044386 0.3215716,31.900874 0.2356959,32.022238 0.0755599,32.242426 0,32.49814 0,32.75122 c 0,0.388728 0.1814516,0.772261 0.5210927,1.018236 0.5604409,0.4042 1.343018,0.276993 1.7484807,-0.283448 0.019364,-0.02582 1.954494,-2.669878 5.882813,-5.535418 0.6721398,-0.490076 1.4534184,-0.979501 2.2786256,-1.461173 0.09038,0.45134 0.179468,0.90524 0.285361,1.295879 1.779498,6.637618 6.802912,9.866027 15.355603,9.866027 3.751412,0 6.868121,-1.166111 8.777423,-3.284601 1.474734,-1.637431 2.159137,-3.766271 1.927985,-5.995161 -0.48618,-4.649547 -5.85569,-8.302821 -12.491362,-8.501044 -3.902496,-0.114909 -8.178173,1.077639 -11.889551,2.763544 -0.43392,-4.105263 -0.552075,-9.291375 -0.552075,-13.5380206 0,-4.3693432 0.118155,-7.7172041 0.120103,-7.7972369 v -0.047142 c 0,-0.66957979 -0.530758,-1.22681148 -1.207444,-1.25068707382 C 10.064898,-0.02614905 9.483142,0.51622442 9.4592296,1.2077322 M 26.071976,35.143489 c -7.460192,0 -11.448564,-2.469094 -12.934297,-8.007759 -0.14654,-0.549477 -0.276344,-1.188688 -0.392551,-1.875688 3.535083,-1.701377 7.74173,-2.993396 11.467282,-2.881698 5.297846,0.156926 9.7201,2.903627 10.070705,6.252137 0.158838,1.534785 -0.289904,2.938503 -1.296528,4.057474 -1.426296,1.583223 -3.882479,2.455534 -6.914611,2.455534"
     style="fill:#000000;fill-opacity:1;fill-rule:nonzero;stroke:none;stroke-width:0.352774"
     id="path16035-6" />
  <path
     d="m 37.200774,4.8170846 c 0.698562,0 1.266174,0.414473 1.266174,0.924795 0,0.211029 -0.0047,5.1963514 -0.358347,7.7094734 -0.355419,2.542332 -1.563138,5.772712 -1.614608,5.909518 -0.184712,0.492224 -0.882709,0.782169 -1.557318,0.645963 -0.674608,-0.134477 -1.070949,-0.642471 -0.886202,-1.13586 0.01168,-0.03214 1.204792,-3.219867 1.538021,-5.60846 0.341379,-2.419002 0.344907,-7.4691644 0.344907,-7.5206344 0,-0.510322 0.567612,-0.924795 1.267373,-0.924795"
     style="fill:#000000;fill-opacity:1;fill-rule:nonzero;stroke:none;stroke-width:0.352773"
     id="path11337" />
</svg>
