<?xml version="1.0" encoding="UTF-8" standalone="no"?>
<!-- Created with Inkscape (http://www.inkscape.org/) -->

<svg
   width="90.813736"
   height="69.295326"
   viewBox="0 0 24.027802 18.334389"
   version="1.1"
   id="svg1615"
   xmlns="http://www.w3.org/2000/svg"
   xmlns:svg="http://www.w3.org/2000/svg">
  <defs
     id="defs1612" />
  <path
     d="m 23.273315,0 c 0.416031,0 0.754486,0.246838 0.754486,0.550862 0,0.126048 -0.0028,3.095025 -0.213572,4.592355 -0.211808,1.515428 -0.931298,3.439901 -0.962237,3.52044 -0.109714,0.294076 -0.525744,0.466231 -0.927805,0.385692 -0.401461,-0.07994 -0.637787,-0.383363 -0.527509,-0.67631 0.007,-0.01926 0.717726,-1.919217 0.916129,-3.341264 C 22.516465,3.589302 22.518229,0.581201 22.518229,0.550862 22.518229,0.246838 22.856084,0 23.273315,0"
     style="fill:#000000;fill-opacity:1;fill-rule:nonzero;stroke:none;stroke-width:0.352778"
     id="path38534" />
  <path
     d="M 4.0199028,11.273119 C 1.4126987,13.108904 0.1937103,14.871735 0.141217,14.94409 0.045508,15.076558 0,15.23118 0,15.38351 c 0,0.234562 0.1091142,0.465631 0.3133373,0.613868 0.3390547,0.243311 0.8087783,0.1663 1.0532886,-0.170991 0.012841,-0.01573 1.1769725,-1.608208 3.5431589,-3.33368 0.4043892,-0.295275 0.8753122,-0.58995 1.3718822,-0.879968 0.054857,0.271356 0.10795,0.544441 0.1721556,0.780168 1.0719153,3.997183 4.0969494,5.941483 9.2471524,5.941483 2.259436,0 4.136037,-0.701993 5.285599,-1.978166 0.887554,-0.985555 1.300692,-2.267585 1.161803,-3.610257 C 21.854266,9.946781 18.62328,7.61499 14.625532,7.627232 9.1602279,7.643562 6.1743167,9.756528 4.0199028,11.273119 m 11.6810722,5.5511 c -4.49199,0 -6.8943716,-1.486817 -7.7895099,-4.82286 C 7.8227771,11.671088 7.7457301,11.28596 7.6745395,10.872258 9.8038357,9.848144 12.337521,9.06974 14.580588,9.136838 c 3.191334,0.09451 5.853959,1.748826 6.065203,3.76548 0.09627,0.924313 -0.174484,1.769851 -0.780169,2.443233 -0.859543,0.953488 -2.338775,1.478668 -4.164647,1.478668"
     style="fill:#000000;fill-opacity:1;fill-rule:nonzero;stroke:none;stroke-width:0.352778"
     id="path38536" />
</svg>
