<?xml version="1.0" encoding="UTF-8" standalone="no"?>
<!-- Created with Inkscape (http://www.inkscape.org/) -->

<svg
   width="100.60506"
   height="218.19614"
   viewBox="0 0 26.618422 57.731063"
   version="1.1"
   id="svg1615"
   xmlns="http://www.w3.org/2000/svg"
   xmlns:svg="http://www.w3.org/2000/svg">
  <defs
     id="defs1612">
    <clipPath
       clipPathUnits="userSpaceOnUse"
       id="clipPath25275">
      <path
         d="M 144.7322,119.8692 H 914.7571 V 364.2969 H 144.7322 Z"
         id="path25273" />
    </clipPath>
  </defs>
  <path
     d="M 24.937834,9.0815694e-5 C 24.105772,0.01212082 23.43934,0.69287582 23.449112,1.5257138 c 0.006,0.243981 0.295945,24.4993932 0.07532,30.8615992 l -0.04367,2.835875 c -0.0075,0.983438 -0.02561,2.011292 -0.06099,3.05121 -2.452582,-2.092607 -6.217673,-3.580589 -10.43305,-3.580589 -1.50301,0 -3.0595015,0.187502 -4.6257638,0.600922 -3.2048449,0.847125 -5.7726438,3.133302 -7.2259471,6.436007 -1.49775326,3.402154 -1.51433381,7.412708 -0.042933,10.216938 1.4096647,2.690531 3.9962665,4.670954 7.0956662,5.439057 3.6559067,0.905122 7.6965887,0.01203 11.3743317,-2.51661 6.817043,-4.686759 6.880296,-13.320854 6.929261,-19.625098 l 0.04216,-2.755301 C 26.755641,26.058233 26.473247,2.4887968 26.460437,1.4895538 26.449927,0.65671682 25.767687,-0.00894018 24.937848,9.0815694e-5 M 22.736021,41.89792 c 0.103187,0.158891 0.254529,0.257527 0.402872,0.362196 -0.511281,3.963882 -1.826048,7.753809 -5.283905,10.127333 -2.613731,1.798955 -4.931516,2.338846 -6.771146,2.338846 -0.828287,0 -1.5579735,-0.109925 -2.1731825,-0.262043 C 6.6463061,53.904005 4.7682937,52.477055 3.7577617,50.550853 2.7125518,48.556106 2.7675145,45.498863 3.8902651,42.94387 4.5145406,41.526692 6.0243236,39.027437 9.1312725,38.205889 10.43775,37.861013 11.744228,37.70512 13.001034,37.70512 c 4.369752,0 8.192064,1.878048 9.734973,4.1928"
     style="fill:#000000;fill-opacity:1;fill-rule:nonzero;stroke:none;stroke-width:0.352778"
     id="path25277" />
  <path
     d="m 13.12052,17.387096 c 4.76511,3.436762 7.974435,9.408196 8.106974,9.659691 0.390807,0.734201 0.111442,1.644579 -0.622724,2.035386 -0.730426,0.389326 -1.643838,0.113736 -2.035421,-0.621982 -0.02935,-0.05422 -3.02186,-5.610719 -7.210884,-8.631061 -4.2432467,-3.0595 -8.2598333,-4.221409 -8.3012494,-4.233474 -0.7981949,-0.22666 -1.265061,-1.05724 -1.0399183,-1.857693 0.2251428,-0.799712 1.0549819,-1.265802 1.8561755,-1.040659 0.1815042,0.0527 4.5489988,1.301221 9.2470472,4.689792"
     style="fill:#000000;fill-opacity:1;fill-rule:nonzero;stroke:none;stroke-width:0.352778"
     id="path25279" />
</svg>
