<?xml version="1.0" encoding="UTF-8" standalone="no"?>
<!-- Created with Inkscape (http://www.inkscape.org/) -->

<svg
   width="88.17392"
   height="64.720009"
   viewBox="0 0 23.329351 17.123836"
   version="1.1"
   id="svg1615"
   xmlns="http://www.w3.org/2000/svg"
   xmlns:svg="http://www.w3.org/2000/svg">
  <defs
     id="defs1612" />
  <path
     d="m 21.056376,5.2309217 c -1.568098,-1.032474 -4.056169,-1.62433 -6.82611,-1.62433 -2.047487,0 -4.052429,0.333128 -5.5011455,0.91373 -1.929342,0.773748 -3.553072,1.999333 -4.689299,3.024928 0.116241,-0.456847 0.243135,-0.786235 0.335633,-0.955604 0.614363,-1.136826 2.294926,-3.613044 2.621174,-4.091164 0.276896,-0.376238 0.36502,-0.718115 0.256258,-0.98873 -0.104986,-0.260633 -0.376237,-0.431236 -0.806238,-0.506236 L 0.97174848,0.01104572 c -0.406858,-0.0719 -0.818726,0.214983 -0.940611,0.634365 -0.06124,0.221227 -0.03122000064,0.45123798 0.08188,0.63122498 0.103751,0.164994 0.265006,0.27499 0.459986,0.310621 0,0 2.91743802,0.496852 4.73427802,0.799359 -0.920609,1.355584 -1.982434,2.939309 -2.208706,3.356822 -0.406859,0.746231 -0.816222,2.208071 -0.816222,3.792396 0,0.7074963 0.07874,1.3831013 0.23562,2.0081173 0.448134,1.802448 1.484348,3.175565 3.080562,4.080546 1.725612,0.980581 3.901193,1.49934 6.2892515,1.49934 h 0.0014 c 3.094919,0 6.308619,-0.90498 8.384187,-2.361212 1.965608,-1.379361 3.079962,-3.344933 3.055586,-5.3911503 -0.02251,-1.696826 -0.851254,-3.206185 -2.272454,-4.140553 m 0.784366,4.163695 c 0.0181,1.4605713 -0.843104,2.9099233 -2.364952,3.9780283 -1.843087,1.293107 -4.756785,2.096206 -7.604231,2.096206 -2.1524735,0 -4.0861895,-0.451838 -5.5924095,-1.30623 -1.211862,-0.688728 -1.994323,-1.716829 -2.326217,-3.056784 -0.08124,-0.325014 -0.131233,-0.680015 -0.156845,-1.1099803 0.3181,-0.356271 2.550548,-2.770576 5.439269,-3.92931 1.3193535,-0.528743 3.0661685,-0.819362 4.9186395,-0.819362 2.514318,0 4.809278,0.521865 6.139251,1.396224 0.983121,0.645619 1.532466,1.623096 1.547495,2.751208"
     style="fill:#000000;fill-opacity:1;fill-rule:nonzero;stroke:none;stroke-width:0.352778"
     id="path34019" />
</svg>
