<?xml version="1.0" encoding="UTF-8" standalone="no"?>
<!-- Created with Inkscape (http://www.inkscape.org/) -->

<svg
   width="73.016014"
   height="77.797699"
   viewBox="0 0 19.318577 20.583715"
   version="1.1"
   id="svg1615"
   xmlns="http://www.w3.org/2000/svg"
   xmlns:svg="http://www.w3.org/2000/svg">
  <defs
     id="defs1612" />
  <path
     d="m 2.7993646,3.0359596 c 3.601982,-3.83327104 9.6118604,-3.76546804 12.7532114,-1.306955 3.06796,2.401328 4.376943,6.622367 3.4972,11.2898384 -0.838235,4.458456 -5.485981,7.564872 -9.1325032,7.564872 -3.3078892,0 -8.0806612,-2.134032 -8.3362812,-5.609484 -0.0086,-0.117439 -0.01114,-0.234877 -0.01114,-0.351292 -0.06226,-0.04202 -0.127555,-0.07997 -0.175138,-0.142238 C -0.63557737,11.855644 -0.67709937,6.7341176 2.7993616,3.0359596 M 14.641451,2.8927336 c -1.17839,-0.922256 -2.841698,-1.4385751 -4.593585,-1.4385751 -2.1715144,0 -4.4796954,0.7931761 -6.1723624,2.5946831 -2.674656,2.846246 -2.777916,6.4532824 -1.835412,8.6000134 1.156624,-2.632641 4.333915,-4.5774094 6.449243,-5.6100124 C 11.285476,5.6741746 14.7275,4.9807276 16.265277,4.7200286 15.8087,4.0336726 15.288854,3.3994216 14.641451,2.8927336 m -5.5031934,5.473842 c -3.966428,1.9356314 -6.239177,4.3657804 -6.082768,6.4988244 0.168054,2.284384 3.914291,4.240794 6.8617802,4.240794 2.7075592,0 6.9392242,-2.419566 7.6807782,-6.360679 0.462143,-2.458513 0.247015,-4.7596174 -0.556796,-6.6532334 -0.985028,0.150846 -4.924123,0.820515 -7.9029944,2.274294"
     style="fill:#000000;fill-opacity:1;fill-rule:nonzero;stroke:none;stroke-width:0.352773"
     id="path6968" />
</svg>
