<?xml version="1.0" encoding="UTF-8" standalone="no"?>
<!-- Created with Inkscape (http://www.inkscape.org/) -->

<svg
   width="82.908188"
   height="84.775558"
   viewBox="0 0 21.936126 22.4302"
   version="1.1"
   id="svg1615"
   xmlns="http://www.w3.org/2000/svg"
   xmlns:svg="http://www.w3.org/2000/svg">
  <defs
     id="defs1612" />
  <path
     d="m 5.635734,0.71944483 c -0.0076,0.19198167 -0.07645,2.16023477 -0.07645,4.71314647 0,2.7408364 0.08054,6.1538907 0.401461,8.7675157 C 5.233106,14.599839 4.559124,15.019963 3.977358,15.444778 1.428503,17.303881 0.191982,19.00487 0.140053,19.077225 0.044943,19.208528 0,19.360823 0,19.511388 c 0,0.232234 0.10855,0.460975 0.310445,0.606284 0.334363,0.241582 0.800029,0.165135 1.042176,-0.168063 0.01111,-0.01577 1.164167,-1.590711 3.504106,-3.298085 0.400862,-0.291782 0.865929,-0.583529 1.357877,-0.870655 0.05426,0.268429 0.106751,0.539785 0.169792,0.772019 1.060274,3.954568 4.05317,5.877313 9.147951,5.877313 2.234918,0 4.091694,-0.694408 5.229014,-1.956576 0.878205,-0.975678 1.286686,-2.243667 1.148362,-3.571205 -0.288819,-2.770011 -3.487138,-4.947144 -7.441706,-5.065007 -2.32477,-0.06886 -4.871897,0.642444 -7.082861,1.646696 C 7.126641,11.037983 7.05605,7.9493432 7.05605,5.4191857 c 0,-2.603112 0.07059,-4.59821142 0.07175,-4.64548364 V 0.74569146 C 7.1278,0.34655868 6.811535,0.01395979 6.408909,5.5422682e-4 5.996336,-0.01521497 5.649732,0.3074709 5.635726,0.71944479 M 15.53235,20.936363 c -4.444153,0 -6.820852,-1.470483 -7.705478,-4.770931 -0.08752,-0.326778 -0.164535,-0.707249 -0.233997,-1.116859 2.105942,-1.014201 4.612217,-1.783292 6.831965,-1.717322 3.156303,0.09394 5.790318,1.730128 5.999233,3.724627 0.09511,0.915 -0.172156,1.751754 -0.772019,2.418151 -0.850194,0.942975 -2.313093,1.462334 -4.119704,1.462334"
     style="fill:#000000;fill-opacity:1;fill-rule:nonzero;stroke:none;stroke-width:0.352778"
     id="path38532" />
</svg>
