<?xml version="1.0" encoding="UTF-8" standalone="no"?>
<!-- Created with Inkscape (http://www.inkscape.org/) -->

<svg
   width="114.99291"
   height="107.86749"
   viewBox="0 0 30.424825 28.539578"
   version="1.1"
   id="svg1615"
   xmlns="http://www.w3.org/2000/svg"
   xmlns:svg="http://www.w3.org/2000/svg">
  <defs
     id="defs1612">
    <clipPath
       clipPathUnits="userSpaceOnUse"
       id="clipPath16093">
      <path
         d="M 162.3067,187.5022 H 854.256 V 344.1768 H 162.3067 Z"
         id="path16091" />
    </clipPath>
    <clipPath
       clipPathUnits="userSpaceOnUse"
       id="clipPath16033">
      <path
         d="M 162.3067,187.5022 H 854.256 V 344.1768 H 162.3067 Z"
         id="path16031" />
    </clipPath>
  </defs>
  <path
     d="M 29.513618,3.5542235e-4 C 30.027503,0.01598542 30.434321,0.58864042 30.424655,1.2817694 l -0.123471,7.594081 c -0.0059,0.399374 -0.153209,0.768269 -0.394154,0.997325 -0.242461,0.2297966 -0.550361,0.2907906 -0.830745,0.1643566 -0.06544,-0.029 -6.752928,-2.9919756 -14.859412,-2.3040326 C 6.4599162,8.3946674 1.6123882,12.582545 1.8697362,18.405809 c 0.306383,6.98276 10.0170688,7.603006 12.9859738,7.62456 6.68008,0.05355 14.243646,-3.627074 14.319492,-3.665032 0.483441,-0.237981 1.016658,0.09595 1.192198,0.748197 0.176245,0.649244 -0.07214,1.372888 -0.554842,1.607905 -0.319048,0.156914 -7.946572,3.874016 -14.967255,3.817502 C 5.6961272,28.467541 0.28931119,24.827801 0.01340719,18.553798 -0.30937981,11.215583 5.2194242,5.9865304 14.098623,5.2308904 c 6.522391,-0.556288 12.03331,1.098465 14.370786,1.952283 0.032,-2.014724 0.09595,-5.957178 0.09595,-5.957178 0.01115,-0.69090598 0.434334,-1.24200898 0.948255,-1.22563997765"
     style="fill:#000000;fill-opacity:1;fill-rule:nonzero;stroke:none;stroke-width:0.352773"
     id="path23931" />
</svg>
