<?xml version="1.0" encoding="UTF-8" standalone="no"?>
<!-- Created with Inkscape (http://www.inkscape.org/) -->

<svg
   width="93.478561"
   height="85.019478"
   viewBox="0 0 24.732867 22.494736"
   version="1.1"
   id="svg1615"
   xmlns="http://www.w3.org/2000/svg"
   xmlns:svg="http://www.w3.org/2000/svg">
  <defs
     id="defs1612" />
  <path
     d="m 1.7517938,5.2411965 c 0.202918,-0.0081 2.28667,-0.08007 4.9887714,-0.08007 2.901527,0 6.5135828,0.0846 9.2806658,0.425009 1.672837,0.268401 0.248779,0.03525 1.672837,0.268401 0.284515,0.0569 0.571041,0.113302 0.816786,0.179268 4.186626,1.122443 6.222013,4.2903625 6.222013,9.6829935 0,2.365728 -0.735718,4.33063 -2.071653,5.53466 -1.032298,0.930099 -2.374794,1.362146 -3.78026,1.215108 -2.931725,-0.305682 -5.236034,-3.691114 -5.360423,-7.875729 -0.0725,-2.460907 0.679838,-5.1569755 1.742334,-7.4970305 -2.588295,-0.273939 -5.8584398,-0.348467 -8.5369048,-0.348467 -2.7544534,0 -4.8664284,0.07453 -4.9167694,0.07604 h -0.02921 c -0.422981,0 -0.773959,-0.335372 -0.78909397,-0.761386 -0.01661,-0.437093 0.32480297,-0.803685 0.76090697,-0.818795 M 23.151681,15.716798 c 0,-4.703762 -1.557514,-7.2190605 -5.050719,-8.1556885 -0.345969,-0.09316 -0.748806,-0.174234 -1.181876,-0.248758 -1.07308,2.229778 -1.887361,4.8825255 -1.81737,7.2316725 0.09871,3.340629 1.830952,6.129866 3.942397,6.350917 0.96834,0.100189 1.85413,-0.18281 2.559121,-0.81728 0.99755,-0.90036 1.548447,-2.448313 1.548447,-4.360863"
     style="fill:#000000;fill-opacity:1;fill-rule:nonzero;stroke:none;stroke-width:0.352778"
     id="path31047" />
  <path
     d="M 9.8875902,0.48354089 V 15.143252 c 0,0.70799 -1.100773,0.816787 -1.100773,0.104246 V 0.58777989 c 0,-0.708512 1.100773,-0.816275 1.100773,-0.104239"
     style="fill:#000000;fill-opacity:1;fill-rule:nonzero;stroke:none;stroke-width:0.352778"
     id="path31051" />
  <path
     d="M 6.6692342,0.48354089 V 15.143252 c 0,0.70799 -1.101796,0.816787 -1.101796,0.104246 V 0.58777989 c 0,-0.708512 1.101796,-0.816275 1.101796,-0.104239"
     style="fill:#000000;fill-opacity:1;fill-rule:nonzero;stroke:none;stroke-width:0.352778"
     id="path31053" />
  <path
     d="m 0.00332183,9.5442845 c -0.03996,-0.439664 0.285239,-0.830271 0.725537,-0.869629 0.182881,-0.01696 4.48507837,-0.408197 6.67493437,-0.38275 2.215303,0.02301 5.0737478,0.529282 5.1942638,0.550482 0.436019,0.07751 0.725505,0.494805 0.648594,0.930221 -0.07812,0.4348145 -0.49417,0.7249025 -0.929586,0.6473895 -0.02849,-0.0043 -2.8499848,-0.5044685 -4.9308278,-0.5262715 -2.108095,-0.02361 -6.46784237,0.3724495 -6.51084537,0.3772985 -0.440868,0.03936 -0.830873,-0.2858405 -0.87207,-0.7267405"
     style="fill:#000000;fill-opacity:1;fill-rule:nonzero;stroke:none;stroke-width:0.352778"
     id="path36825" />
</svg>
