<?xml version="1.0" encoding="UTF-8" standalone="no"?>
<!-- Created with Inkscape (http://www.inkscape.org/) -->

<svg
   width="99.386368"
   height="65.514732"
   viewBox="0 0 26.295978 17.334107"
   version="1.1"
   id="svg1615"
   xmlns="http://www.w3.org/2000/svg"
   xmlns:svg="http://www.w3.org/2000/svg">
  <defs
     id="defs1612" />
  <path
     d="m 19.358073,9.5827526 c 1.708608,-0.917504 3.416194,-1.834479 5.124767,-2.7524776 0.623429,-0.334856 1.24079,0.5846236 0.612846,0.9215256 -1.708079,0.917505 -3.416159,1.83448 -5.124274,2.7519494 -0.623887,0.334892 -1.241248,-0.5841294 -0.613339,-0.9209974"
     style="fill:#000000;fill-opacity:1;fill-rule:nonzero;stroke:none;stroke-width:0.352778"
     id="path31061" />
  <path
     d="m 2.5545259,0.898352 c 0.01461,0.426015 0.366571,0.761894 0.789058,0.761894 h 0.02974 c 0.04932,-0.0014 2.1612581,-0.07652 4.9167701,-0.07652 2.677936,0 5.947587,0.075 8.536376,0.348438 -1.063026,2.340575 -1.815818,5.037138 -1.742828,7.4980446 0.124389,4.1846154 2.429192,7.5695534 5.360952,7.8757294 1.405432,0.147038 2.747433,-0.285009 3.779732,-1.215108 1.336428,-1.203995 2.071652,-3.168897 2.071652,-5.53466 0,-5.392632 -2.035422,-8.561035 -6.221518,-9.683503 -0.245745,-0.06646 -0.532765,-0.122343 -0.817281,-0.179247 -1.42307,-0.233644 0,0 -1.673331,-0.268922 C 14.817788,0.084103 11.205203,0 8.304205,0 5.602068,0 3.5188449,0.072 3.3153979,0.07955 2.8793289,0.09468 2.5379109,0.461255 2.5545259,0.898347 M 23.166838,14.917036 c -0.705485,0.634506 -1.591275,0.917504 -2.559614,0.81728 -2.110917,-0.22105 -3.843197,-3.010288 -3.942398,-6.3509174 -0.06999,-2.3496406 0.744291,-5.0018946 1.817864,-7.2321566 0.433564,0.07401 0.835907,0.155575 1.18237,0.24825 3.493206,0.936625 5.049732,3.452919 5.049732,8.156681 0,1.912056 -0.54991,3.459974 -1.547954,4.360863"
     style="fill:#000000;fill-opacity:1;fill-rule:nonzero;stroke:none;stroke-width:0.352778"
     id="path31063" />
  <path
     d="m 0.59043485,4.674662 c -0.04332,-0.472828 0.306141,-0.89281 0.78052105,-0.936096 0.195862,-0.01764 4.8236021,-0.438115 7.1797691,-0.412432 2.382873,0.02519 5.458108,0.571041 5.587542,0.593195 0.468806,0.08361 0.780521,0.532765 0.696912,1.001078 -0.08357,0.467819 -0.531248,0.780027 -1.000054,0.695925 -0.03023,-0.004 -3.065181,-0.542326 -5.30352,-0.565997 C 6.264055,5.025145 1.5743679,5.45169 1.5280479,5.455712 1.0532089,5.499002 0.63421485,5.149042 0.59043485,4.674662"
     style="fill:#000000;fill-opacity:1;fill-rule:nonzero;stroke:none;stroke-width:0.352778"
     id="path31065" />
  <path
     d="m 0.00362485,8.2601536 c -0.04332,-0.472863 0.306669,-0.89281 0.78052,-0.9361306 C 0.98004285,7.306383 5.60877,6.885908 7.96395,6.91212 c 2.383331,0.02515 5.458107,0.5705116 5.587506,0.5926656 0.468807,0.08361 0.780521,0.532801 0.697442,1.001113 -0.0841,0.467784 -0.531777,0.779992 -1.00009,0.69589 -0.0302,-0.004 -3.06518,-0.541832 -5.302991,-0.565997 -2.268044,-0.02515 -6.95723715,0.401355 -7.00458015,0.405377 -0.473851,0.04332 -0.893797,-0.30667 -0.937612,-0.781015"
     style="fill:#000000;fill-opacity:1;fill-rule:nonzero;stroke:none;stroke-width:0.352778"
     id="path31067" />
</svg>
