<?xml version="1.0" encoding="UTF-8" standalone="no"?>
<!-- Created with Inkscape (http://www.inkscape.org/) -->

<svg
   width="119.10542"
   height="121.79357"
   viewBox="0 0 31.513306 32.22455"
   version="1.1"
   id="svg1615"
   xmlns="http://www.w3.org/2000/svg"
   xmlns:svg="http://www.w3.org/2000/svg">
  <defs
     id="defs1612" />
  <path
     d="M 8.096038,1.0338448 C 8.085458,1.3096465 7.986854,4.1374072 7.986854,7.804885 c 0,3.937705 0.115323,8.84047 0.576121,12.595966 C 7.517695,20.97422 6.549284,21.57934 5.713483,22.188905 2.052144,24.858445 0.275802,27.303406 0.201119,27.407053 0.064629,27.59593 0,27.81437 0,28.030552 c 0,0.333199 0.155434,0.661388 0.445735,0.871467 0.480871,0.346004 1.148962,0.237913 1.497189,-0.242394 0.01616,-0.02117 1.672696,-2.285612 5.03428,-4.737276 0.575592,-0.419029 1.243647,-0.839152 1.950191,-1.250915 0.07856,0.386151 0.153775,0.775053 0.244616,1.108252 1.522236,5.682297 5.822138,8.444864 13.141465,8.444864 3.21056,0 5.878407,-0.998466 7.512121,-2.811039 1.262062,-1.401339 1.848238,-3.22393 1.649871,-5.131223 -0.415678,-3.979509 -5.010326,-7.106496 -10.690366,-7.275301 -3.340417,-0.09864 -7.000063,0.922162 -10.175522,2.36474 -0.371651,-3.513137 -0.473075,-7.951187 -0.473075,-11.5863506 0,-3.7387741 0.101424,-6.6050229 0.103646,-6.6735324 V 1.071733 C 10.240151,0.49836326 9.785456,0.02140766 9.207112,7.7015571e-4 8.614234,-0.02148984 8.116676,0.44153076 8.096038,1.0338446 M 22.313476,30.078815 c -6.38436,0 -9.798296,-2.113456 -11.069813,-6.855213 -0.125377,-0.469688 -0.23682,-1.016317 -0.335986,-1.604151 3.024999,-1.455949 6.626155,-2.561449 9.814454,-2.466728 4.534465,0.133738 8.318923,2.485108 8.618714,5.351321 0.137054,1.31445 -0.246839,2.516294 -1.108816,3.473027 -1.221387,1.353961 -3.323131,2.101744 -5.918553,2.101744"
     style="fill:#000000;fill-opacity:1;fill-rule:nonzero;stroke:none;stroke-width:0.352778"
     id="path2632" />
  <path
     d="m 1.542098,6.3223364 h 14.965715 c 0.7227,0 0.833578,-1.494402 0.106433,-1.494402 H 1.648496 c -0.72323,0 -0.83245,1.494402 -0.106398,1.494402"
     style="fill:#000000;fill-opacity:1;fill-rule:nonzero;stroke:none;stroke-width:0.352778"
     id="path2634" />
</svg>
