<?xml version="1.0" encoding="UTF-8" standalone="no"?>
<!-- Created with Inkscape (http://www.inkscape.org/) -->

<svg
   width="116.11427"
   height="121.79358"
   viewBox="0 0 30.7219 32.224552"
   version="1.1"
   id="svg1615"
   xmlns="http://www.w3.org/2000/svg"
   xmlns:svg="http://www.w3.org/2000/svg">
  <defs
     id="defs1612" />
  <path
     d="M 0.51944233,7.7080139 H 16.279189 c 0.761118,0 0.87757,-1.494931 0.111972,-1.494931 H 0.63197833 c -0.761682,0 -0.87757,1.494931 -0.112536,1.494931"
     style="fill:#000000;fill-opacity:1;fill-rule:nonzero;stroke:none;stroke-width:0.352778"
     id="path2594" />
  <path
     d="m 7.3044523,1.0338111 c -0.01058,0.275802 -0.108655,3.103598 -0.108655,6.7710403 0,3.9377056 0.114229,8.8405056 0.576721,12.5960006 0.364384,2.270584 0.04791,0.337644 0.364384,2.270584 0.07747,0.386115 0.153811,0.775053 0.243522,1.108251 1.523365,5.682297 5.8232317,8.444865 13.1420307,8.444865 3.211124,0 5.877842,-0.998502 7.511556,-2.811039 1.262627,-1.401375 1.848767,-3.223966 1.649871,-5.131223 -0.415678,-3.97951 -5.010327,-7.106497 -10.689837,-7.275336 -3.339818,-0.0986 -6.999499,0.922161 -10.1755217,2.36474 -0.371087,-3.513102 -0.472475,-7.951188 -0.472475,-11.5863159 0,-3.738809 0.101388,-6.605023 0.103611,-6.673568 v -0.04011 c 0,-0.57333496 -0.455789,-1.05032596 -1.034133,-1.07092795668 C 7.8226473,-0.02151786 7.3250903,0.44153314 7.3044523,1.0338111 M 21.522455,30.078781 c -6.383796,0 -9.798297,-2.113421 -11.069285,-6.855177 -0.126471,-0.469724 -0.236784,-1.016318 -0.337079,-1.604151 3.026128,-1.455985 6.626154,-2.561449 9.814454,-2.466728 4.534464,0.133738 8.320052,2.485107 8.619807,5.351321 0.135961,1.314414 -0.247932,2.516293 -1.108816,3.472991 -1.22248,1.353996 -3.32366,2.101744 -5.919081,2.101744"
     style="fill:#000000;fill-opacity:1;fill-rule:nonzero;stroke:none;stroke-width:0.352778"
     id="path2598" />
</svg>
