<?xml version="1.0" encoding="UTF-8" standalone="no"?>
<!-- Created with Inkscape (http://www.inkscape.org/) -->

<svg
   width="113.18366"
   height="76.309944"
   viewBox="0 0 29.946512 20.19034"
   version="1.1"
   id="svg1615"
   xmlns="http://www.w3.org/2000/svg"
   xmlns:svg="http://www.w3.org/2000/svg">
  <defs
     id="defs1612" />
  <path
     d="m 21.865531,11.161391 c 1.98946,-1.068176 3.97941,-2.136916 5.96833,-3.20615 0.72715,-0.389678 1.44611,0.681073 0.71487,1.073326 -1.99048,1.068741 -3.9794,2.136916 -5.96935,3.205657 -0.72665,0.389678 -1.44508,-0.680579 -0.71385,-1.072833"
     style="fill:#000000;fill-opacity:1;fill-rule:nonzero;stroke:none;stroke-width:0.352778"
     id="path230" />
  <path
     d="M 3.178436,0.0932 C 3.415009,0.084 5.841768,0 8.989533,0 c 3.379223,0 7.587016,0.09832 10.809538,0.4947 1.94899,0.312879 0.29037,0.04145 1.94899,0.312879 0.33133,0.06657 0.6652,0.131586 0.95095,0.208915 4.87655,1.307359 7.2475,4.997415 7.2475,11.278623 0,2.756004 -0.85725,5.044514 -2.41244,6.446594 -1.20286,1.08355 -2.76676,1.58693 -4.4039,1.41591 -3.41506,-0.35642 -6.098398,-4.29998 -6.243284,-9.173955 -0.08502,-2.866637 0.791669,-6.007241 2.029354,-8.73252 C 15.90112,1.932094 12.092249,1.845063 8.972635,1.845063 c -3.20869,0 -5.668222,0.08703 -5.7271,0.08908 H 3.211215 C 2.71909,1.934143 2.309444,1.543441 2.292017,1.04673 2.272577,0.537707 2.670441,0.110634 3.178441,0.093207 m 24.92661,12.201913 c 0,-5.47878 -1.81377,-8.408917 -5.88331,-9.499635 -0.40301,-0.108585 -0.87206,-0.203306 -1.37699,-0.289348 -1.24947,2.597291 -2.19785,5.686671 -2.11642,8.423239 0.11472,3.890825 2.13281,7.139975 4.59235,7.397045 1.12811,0.11673 2.15945,-0.21251 2.98029,-0.95148 1.16245,-1.04923 1.80407,-2.85228 1.80407,-5.079821"
     style="fill:#000000;fill-opacity:1;fill-rule:nonzero;stroke:none;stroke-width:0.352778"
     id="path232" />
  <path
     d="M 0.004177,5.445333 C -0.045993,4.893306 0.361612,4.405309 0.913145,4.355108 1.141533,4.334118 6.532718,3.844568 9.275953,3.874766 c 2.777032,0.02921 6.357479,0.664175 6.508574,0.689787 0.545853,0.09832 0.909426,0.620642 0.812659,1.166001 -0.09779,0.545888 -0.619619,0.90999 -1.164978,0.811671 C 15.397388,6.537125 11.861462,5.9098 9.254963,5.882142 6.613645,5.853992 1.15127,6.34915 1.095954,6.3543 0.544456,6.40499 0.055401,5.997889 0.004177,5.445333"
     style="fill:#000000;fill-opacity:1;fill-rule:nonzero;stroke:none;stroke-width:0.352778"
     id="path234" />
</svg>
