<?xml version="1.0" encoding="UTF-8" standalone="no"?>
<!-- Created with Inkscape (http://www.inkscape.org/) -->

<svg
   width="98.617241"
   height="93.841156"
   viewBox="0 0 26.09248 24.828806"
   version="1.1"
   id="svg1615"
   xmlns="http://www.w3.org/2000/svg"
   xmlns:svg="http://www.w3.org/2000/svg">
  <defs
     id="defs1612" />
  <path
     d="m 1.5180849,6.3787173 c 0.217206,-0.009 2.4450326,-0.08562 5.3347406,-0.08562 3.101834,0 6.9652455,0.09006 9.9239575,0.454237 0.452331,-0.824795 0.927664,-1.587006 1.408747,-2.245713 C 20.288756,1.615758 22.214394,0.217206 22.296802,0.159068 22.44504,0.051118 22.617548,0 22.788116,0 c 0.261938,0 0.5207,0.122026 0.686188,0.350732 0.273438,0.378883 0.187184,0.906604 -0.190394,1.180042 -0.01789,0.01277 -1.801036,1.317413 -3.733059,3.9668803 -0.330306,0.453002 -0.660612,0.980087 -0.985167,1.536559 0.304094,0.06068 0.610764,0.120756 0.873371,0.192299 4.476715,1.199833 6.653425,4.5872737 6.653425,10.3545557 0,2.528746 -0.786483,4.630067 -2.215057,5.917424 -1.103982,0.995398 -2.539576,1.456055 -4.042904,1.300797 -3.134395,-0.327765 -5.597983,-3.947724 -5.732145,-8.423169 -0.07733,-2.632251 0.72704,-5.514305 1.863655,-8.0168387 -2.768353,-0.292629 -6.2650165,-0.372498 -9.1285135,-0.372498 -2.9465766,0 -5.2037896,0.07987 -5.2581176,0.08114 h -0.03193 c -0.451697,0 -0.82673497,-0.357752 -0.84271597,-0.813929 -0.01852,-0.467677 0.34755697,-0.859331 0.81332897,-0.875277 M 24.401334,17.581069 c 0,-5.030646 -1.66497,-7.7197647 -5.399935,-8.7221827 -0.370557,-0.09902 -0.801158,-0.186549 -1.264355,-0.264512 -1.14748,2.3837177 -2.018912,5.2197687 -1.943524,7.7325347 0.10541,3.572051 1.957564,6.555069 4.216048,6.790796 1.035014,0.10735 1.981235,-0.196145 2.735756,-0.874642 1.067576,-0.962166 1.65601,-2.618176 1.65601,-4.661994"
     style="fill:#000000;fill-opacity:1;fill-rule:nonzero;stroke:none;stroke-width:0.352778"
     id="path36823" />
  <path
     d="m 0.00350493,10.917203 c -0.04216,-0.463833 0.300919,-0.875912 0.765421,-0.9174327 0.192935,-0.01789 4.73163157,-0.430636 7.04186757,-0.40379 2.3370835,0.02427 5.3526625,0.5583757 5.4798035,0.5807417 0.459987,0.08177 0.765387,0.522005 0.684248,0.981357 -0.08241,0.458717 -0.521335,0.764752 -0.980687,0.682978 -0.03006,-0.0045 -3.0066545,-0.532201 -5.2018855,-0.555202 -2.223981,-0.02491 -6.82339157,0.392924 -6.86875857,0.39804 -0.465103,0.04152 -0.876547,-0.301555 -0.920009,-0.766692"
     style="fill:#000000;fill-opacity:1;fill-rule:nonzero;stroke:none;stroke-width:0.352778"
     id="path36825" />
</svg>
