<?xml version="1.0" encoding="UTF-8" standalone="no"?>
<!-- Created with Inkscape (http://www.inkscape.org/) -->

<svg
   width="105.06692"
   height="63.665581"
   viewBox="0 0 27.798605 16.844639"
   version="1.1"
   id="svg1615"
   xmlns="http://www.w3.org/2000/svg"
   xmlns:svg="http://www.w3.org/2000/svg">
  <defs
     id="defs1612" />
  <path
     d="M 15.498128,0.03803732 C 6.0612875,0.53866442 0.39959245,7.5559428 0.16319645,7.8540752 c -0.228776,0.2890309 -0.216147,0.7020983 0.03238,0.9749014 0.281975,0.3123494 7.00210905,7.6297714 15.31062555,7.9876294 4.699458,0.202988 8.120767,-0.688904 10.168783,-2.650384 1.408713,-1.348987 2.12397,-3.149988 2.12397,-5.3554487 0,-2.5390474 -0.832168,-4.6695781 -2.405416,-6.1612989 -2.077367,-1.97058098 -5.406566,-2.84931508 -9.895416,-2.61143708 m 0.07895,1.50692508 c 4.059131,-0.21463 7.012728,0.5254273 8.77831,2.1993931 1.283159,1.2168716 1.934139,2.9221993 1.934139,5.0664178 0,1.7772237 -0.558341,3.2127467 -1.658267,4.2656477 -1.738769,1.665323 -4.787016,2.415998 -9.060742,2.232766 C 9.0604235,15.02774 3.3936835,9.8909789 1.7839935,8.2959647 3.2220925,6.7384509 8.2247275,1.9352405 15.577075,1.5449624"
     style="fill:#000000;fill-opacity:1;fill-rule:nonzero;stroke:none;stroke-width:0.352778"
     id="path6910" />
</svg>
