<?xml version="1.0" encoding="UTF-8" standalone="no"?>
<!-- Created with Inkscape (http://www.inkscape.org/) -->

<svg
   width="105.06692"
   height="63.665581"
   viewBox="0 0 27.798605 16.844639"
   version="1.1"
   id="svg1615"
   xmlns="http://www.w3.org/2000/svg"
   xmlns:svg="http://www.w3.org/2000/svg">
  <defs
     id="defs1612" />
  <path
     d="m 14.540054,6.4953164 c -2.997623,0.3821642 -5.0355485,2.157871 -5.1205685,2.2337888 -0.273332,0.2414764 -0.373063,0.7471481 -0.225778,1.1298414 0.148308,0.3841754 0.490009,0.5000974 0.764364,0.2591504 0.01873,-0.01722 1.8976965,-1.6425684 4.6067835,-1.9877968 2.770893,-0.3517899 4.849777,0.248532 4.870026,0.2545997 0.301202,0.089112 0.609953,-0.1984022 0.690457,-0.6428316 0.08096,-0.4439355 -0.0967,-0.8762294 -0.396875,-0.9657997 -0.08908,-0.026846 -2.245925,-0.6545085 -5.188409,-0.2809522"
     style="fill:#000000;fill-opacity:1;fill-rule:nonzero;stroke:none;stroke-width:0.352778"
     id="path6908" />
  <path
     d="M 15.498128,0.03803732 C 6.0612875,0.53866442 0.39959245,7.5559428 0.16319645,7.8540752 c -0.228776,0.2890309 -0.216147,0.7020983 0.03238,0.9749014 0.281975,0.3123494 7.00210905,7.6297714 15.31062555,7.9876294 4.699458,0.202988 8.120767,-0.688904 10.168783,-2.650384 1.408713,-1.348987 2.12397,-3.149988 2.12397,-5.3554487 0,-2.5390474 -0.832168,-4.6695781 -2.405416,-6.1612989 -2.077367,-1.97058098 -5.406566,-2.84931508 -9.895416,-2.61143708 m 0.07895,1.50692508 c 4.059131,-0.21463 7.012728,0.5254273 8.77831,2.1993931 1.283159,1.2168716 1.934139,2.9221993 1.934139,5.0664178 0,1.7772237 -0.558341,3.2127467 -1.658267,4.2656477 -1.738769,1.665323 -4.787016,2.415998 -9.060742,2.232766 C 9.0604235,15.02774 3.3936835,9.8909789 1.7839935,8.2959647 3.2220925,6.7384509 8.2247275,1.9352405 15.577075,1.5449624"
     style="fill:#000000;fill-opacity:1;fill-rule:nonzero;stroke:none;stroke-width:0.352778"
     id="path6910" />
  <path
     d="M 12.209993,3.9175693 C 8.3052715,4.8403301 5.9398615,6.8352178 5.8421425,6.9187556 c -0.316865,0.2713213 -0.353307,0.7461249 -0.0835,1.0634838 0.269804,0.3173942 0.745596,0.35433 1.063484,0.085055 0.0223,-0.018733 2.204437,-1.8465799 5.7340855,-2.6807582 3.609127,-0.852946 6.483736,-0.7127169 6.512594,-0.7111999 0.415572,0.02226 0.770925,-0.2966509 0.793185,-0.7132108 0.0223,-0.4156075 -0.296085,-0.7709253 -0.711694,-0.7932208 -0.124495,-0.00758 -3.106455,-0.1563864 -6.940301,0.7486649"
     style="fill:#000000;fill-opacity:1;fill-rule:nonzero;stroke:none;stroke-width:0.352778"
     id="path6912" />
</svg>
