<?xml version="1.0" encoding="UTF-8" standalone="no"?>
<!-- Created with Inkscape (http://www.inkscape.org/) -->

<svg
   width="61.343189"
   height="100.10987"
   viewBox="0 0 16.230386 26.487404"
   version="1.1"
   id="svg1615"
   xmlns="http://www.w3.org/2000/svg"
   xmlns:svg="http://www.w3.org/2000/svg">
  <defs
     id="defs1612" />
  <path
     d="m 1.4091616,6.7460645 c -0.007,0.174484 -0.06886,1.964161 -0.06886,4.2854395 0,2.492234 0.07239,5.595447 0.365301,7.972153 0.230505,1.437231 0.03034,0.214158 0.230505,1.437231 0.049,0.244496 0.09687,0.490746 0.154058,0.7014 0.963966,3.59628 3.68554,5.345116 8.3175834,5.345116 2.032423,0 3.720571,-0.632545 4.754598,-1.77976 0.79883,-0.886965 1.169952,-2.040015 1.04394,-3.247334 -0.263173,-2.518505 -3.170908,-4.497832 -6.7654314,-4.604618 -2.114127,-0.06244 -4.430148,0.584112 -6.440417,1.496748 -0.235162,-2.223241 -0.299332,-5.032325 -0.299332,-7.333177 0,-2.3662225 0.06417,-4.1804175 0.06537,-4.2235975 v -0.02568 c 0,-0.362938 -0.287691,-0.664634 -0.654156,-0.677475 -0.375215,-0.01457 -0.690316,0.278942 -0.703157,0.653556 M 10.407749,25.128951 c -4.0403294,0 -6.2011284,-1.337444 -7.0058144,-4.338529 -0.07994,-0.297599 -0.149966,-0.643046 -0.213572,-1.015336 1.915725,-0.921974 4.193787,-1.621042 6.212241,-1.561522 2.8697764,0.0852 5.2657374,1.573192 5.4553904,3.386794 0.08576,0.832111 -0.156986,1.593031 -0.701992,2.198151 -0.773748,0.857201 -2.103614,1.330442 -3.746253,1.330442"
     style="fill:#000000;fill-opacity:1;fill-rule:nonzero;stroke:none;stroke-width:0.352778"
     id="path38574" />
  <path
     d="m 3.5608596,1.8947355 c -0.105022,1.950155 -2.83594595,2.115291 -3.15104695,0.177976 -0.144709,-0.887553 0.60455495,-1.598859 1.41273395,-1.730163 0.975642,-0.159279 1.693404,0.723582 1.740676,1.60588 0.01401,0.257316 0.407882,0.184961 0.393277,-0.06886 -0.135361,-2.51968 -3.81800795,-2.49749 -3.95396895,0.01517 -0.05895,1.112202 0.921385,1.941407 1.96006895,1.996828 1.111603,0.06011 1.940807,-0.920221 1.996228,-1.958904 0.0146,-0.257317 -0.384528,-0.29524 -0.397968,-0.03792"
     style="fill:#000000;fill-opacity:1;fill-rule:nonzero;stroke:none;stroke-width:0.352778"
     id="path38576" />
</svg>
