<?xml version="1.0" encoding="UTF-8" standalone="no"?>
<!-- Created with Inkscape (http://www.inkscape.org/) -->

<svg
   width="88.917557"
   height="121.79359"
   viewBox="0 0 23.526102 32.224554"
   version="1.1"
   id="svg1615"
   xmlns="http://www.w3.org/2000/svg"
   xmlns:svg="http://www.w3.org/2000/svg">
  <defs
     id="defs1612" />
  <path
     d="m 13.005646,22.80849 c -1.244776,2.317926 -2.490117,4.636981 -3.7359873,6.954943 -0.454131,0.846914 0.7934323,1.684408 1.2508793,0.83245 1.244777,-2.319055 2.490117,-4.637017 3.734894,-6.956037 0.454695,-0.845855 -0.792339,-1.683314 -1.249786,-0.831356"
     style="fill:#000000;fill-opacity:1;fill-rule:nonzero;stroke:none;stroke-width:0.352778"
     id="path2596" />
  <path
     d="M 0.108655,1.0338111 C 0.098075,1.3096131 0,4.1374091 0,7.8048514 0,11.742557 0.114229,16.645357 0.576721,20.400852 c 0.364384,2.270584 0.04791,0.337644 0.364384,2.270584 0.07747,0.386115 0.153811,0.775053 0.243522,1.108251 1.523365,5.682297 5.8232317,8.444865 13.142031,8.444865 3.211124,0 5.877842,-0.998502 7.511556,-2.811039 1.262627,-1.401375 1.848767,-3.223966 1.649871,-5.131223 C 23.072407,20.30278 18.477758,17.175793 12.798248,17.006954 9.4584297,16.908354 5.7987487,17.929115 2.622726,19.371694 2.251639,15.858592 2.150251,11.420506 2.150251,7.7853781 c 0,-3.738809 0.101388,-6.605023 0.103611,-6.673568 v -0.04011 C 2.253862,0.49836514 1.798073,0.02137414 1.219729,7.7214355e-4 0.62685,-0.02151786 0.129293,0.44153314 0.108655,1.0338111 M 14.326658,30.078781 c -6.3837963,0 -9.7982973,-2.113421 -11.0692853,-6.855177 -0.126471,-0.469724 -0.236784,-1.016318 -0.337079,-1.604151 3.026128,-1.455985 6.626154,-2.561449 9.8144543,-2.466728 4.534464,0.133738 8.320052,2.485107 8.619807,5.351321 0.135961,1.314414 -0.247932,2.516293 -1.108816,3.472991 -1.22248,1.353996 -3.32366,2.101744 -5.919081,2.101744"
     style="fill:#000000;fill-opacity:1;fill-rule:nonzero;stroke:none;stroke-width:0.352778"
     id="path2598" />
</svg>
