<?xml version="1.0" encoding="UTF-8" standalone="no"?>
<!-- Created with Inkscape (http://www.inkscape.org/) -->

<svg
   width="112.99509"
   height="107.25487"
   viewBox="0 0 29.89624 28.377492"
   version="1.1"
   id="svg1615"
   xmlns="http://www.w3.org/2000/svg"
   xmlns:svg="http://www.w3.org/2000/svg">
  <defs
     id="defs1612" />
  <path
     d="m 0.95894875,6.6522109 c 0.25565485,-0.01005 2.87940585,-0.100364 6.28179885,-0.100364 3.6532504,0 8.2019094,0.10562 11.6856164,0.534557 2.107115,0.338063 0.313757,0.04438 2.107115,0.338063 0.358171,0.07186 0.718952,0.142626 1.027947,0.226092 5.271809,1.413034 7.834813,5.4022651 7.834813,12.1921991 0,2.979276 -0.926524,5.453523 -2.608441,6.969037 -1.29997,1.17163 -2.990848,1.715183 -4.760465,1.530295 -3.691314,-0.385087 -6.592381,-4.647965 -6.749259,-9.917093 -0.0919,-3.098655 0.855758,-6.493604 2.193756,-9.4401081 -3.259202,-0.344413 -7.376807,-0.438956 -10.7490734,-0.438956 -3.468926,0 -6.128061,0.09454 -6.191454,0.09613 h -0.03697 c -0.531912,0 -0.974572,-0.422587 -0.9935860083,-0.959297 C -0.02038325,7.1328979 0.40957575,6.6712239 0.95894975,6.6522099 M 27.905327,19.842758 c 0,-5.92257 -1.96082,-9.089875 -6.359444,-10.2694081 -0.43631,-0.117262 -0.942893,-0.219742 -1.489092,-0.312734 -1.350698,2.8075821 -2.375999,6.1476051 -2.287805,9.1057501 0.124141,4.206328 2.305232,7.718575 4.964367,7.996948 1.219185,0.125728 2.334266,-0.230326 3.221702,-1.029005 1.256685,-1.13413 1.950272,-3.083309 1.950272,-5.491551"
     style="fill:#000000;fill-opacity:1;fill-rule:nonzero;stroke:none;stroke-width:0.352773"
     id="path13146" />
  <path
     d="M 5.8654256,0.45751091 V 14.341681 c 0,0.670834 -1.386117,0.773315 -1.386117,0.09878 V 0.55629091 c 0,-0.670834 1.386117,-0.772256 1.386117,-0.09878"
     style="fill:#000000;fill-opacity:1;fill-rule:nonzero;stroke:none;stroke-width:0.352773"
     id="path13148" />
  <path
     d="M 9.9187206,0.45751091 V 14.341681 c 0,0.670834 -1.38714,0.773315 -1.38714,0.09878 V 0.55629091 c 0,-0.670834 1.38714,-0.772256 1.38714,-0.09878"
     style="fill:#000000;fill-opacity:1;fill-rule:nonzero;stroke:none;stroke-width:0.352773"
     id="path13150" />
</svg>
