<?xml version="1.0" encoding="UTF-8" standalone="no"?>
<!-- Created with Inkscape (http://www.inkscape.org/) -->

<svg
   width="103.58416"
   height="101.32908"
   viewBox="0 0 27.406643 26.809987"
   version="1.1"
   id="svg1615"
   xmlns="http://www.w3.org/2000/svg"
   xmlns:svg="http://www.w3.org/2000/svg">
  <defs
     id="defs1612" />
  <g
     id="layer1"
     transform="translate(26.555591,-234.50009)">
    <path
       d="m -21.671976,235.29077 c -0.0082,0.61041 -0.175648,14.98043 0.760941,18.56091 0.60325,2.30745 2.016055,7.71042 9.012132,7.44925 6.2468833,-0.23248 8.5138686,-5.58782 8.5138686,-9.13144 0,-3.28499 0.4276019,-16.61449 0.431165,-16.74865 0.013829,-0.44041 -0.4111978,-0.80807 -0.9483725,-0.81883 -0.5386917,-0.0118 -0.9872839,0.33591 -1.0011128,0.77685 -0.00409,0.13465 -0.431165,13.48514 -0.431165,16.79063 0,2.8175 -1.8061164,7.35605 -6.6534943,7.53579 -4.437169,0.16592 -6.014897,-2.35352 -7.017068,-6.188 -0.890482,-3.40893 -0.718961,-18.06215 -0.717409,-18.20961 0.0056,-0.44143 -0.427602,-0.80243 -0.96527,-0.80755 -0.538198,-0.004 -0.978606,0.34975 -0.984215,0.79065"
       style="fill:#000000;fill-opacity:1;fill-rule:nonzero;stroke:none;stroke-width:0.352778"
       id="path242" />
    <path
       d="m -26.340073,253.74419 h 6.542864 c 0.316477,0 0.364596,-1.484 0.04713,-1.484 h -6.542899 c -0.316442,0 -0.364596,1.484 -0.0471,1.484"
       style="fill:#000000;fill-opacity:1;fill-rule:nonzero;stroke:none;stroke-width:0.352778"
       id="path244" />
    <path
       d="m -25.10461,241.76241 h 24.9547595 c 1.2054417,0 1.3908264,-1.48403 0.17769417,-1.48403 H -24.927445 c -1.205441,0 -1.389274,1.48403 -0.177165,1.48403"
       style="fill:#000000;fill-opacity:1;fill-rule:nonzero;stroke:none;stroke-width:0.352778"
       id="path246" />
  </g>
</svg>
