<?xml version="1.0" encoding="UTF-8" standalone="no"?>
<!-- Created with Inkscape (http://www.inkscape.org/) -->

<svg
   width="96.91613"
   height="134.21304"
   viewBox="0 0 25.642392 35.510536"
   version="1.1"
   id="svg1615"
   xmlns="http://www.w3.org/2000/svg"
   xmlns:svg="http://www.w3.org/2000/svg">
  <defs
     id="defs1612">
    <clipPath
       clipPathUnits="userSpaceOnUse"
       id="clipPath236">
      <path
         d="M 636.0905,304 H 926.0741 V 455.4448 H 636.0905 Z"
         id="path234" />
    </clipPath>
  </defs>
  <path
     d="m 5.3056628,7.2423626 c -0.00818,0.6631516 -0.1909939,16.2749784 0.8275461,20.1652714 0.654438,2.507156 2.1891271,8.377166 9.7915231,8.092933 6.786598,-0.252448 9.248175,-6.070705 9.248175,-9.920534 0,-3.569229 0.464467,-18.0504035 0.469089,-18.1963476 0.01588,-0.4787901 -0.446017,-0.8776759 -1.029794,-0.8899878 -0.585329,-0.012806 -1.072303,0.3656188 -1.088178,0.8444441 -0.0036,0.1464381 -0.469089,14.6506493 -0.469089,18.2418913 0,3.061229 -1.961268,7.992039 -7.227005,8.187161 C 11.007186,33.947428 9.2917341,31.210366 8.2035558,27.04459 7.2352161,23.34067 7.4221177,7.4205859 7.4236347,7.2608128 7.4298083,6.7809645 6.9602258,6.3887109 6.3754261,6.3835956 5.7911203,6.3790095 5.3118364,6.7630434 5.3056628,7.2423626"
     style="fill:#000000;fill-opacity:1;fill-rule:nonzero;stroke:none;stroke-width:0.352778"
     id="path192" />
  <path
     d="M 0.23497624,27.290899 H 7.3436952 c 0.3431117,0 0.395852,-1.612053 0.0502,-1.612053 H 0.28517652 c -0.34413471,0 -0.39585193,1.612053 -0.0502003,1.612053"
     style="fill:#000000;fill-opacity:1;fill-rule:nonzero;stroke:none;stroke-width:0.352778"
     id="path194" />
  <path
     d="M 14.320256,0.04004157 C 13.196258,0.66911747 12.072259,1.2987031 10.94877,1.9282887 10.710626,2.0614231 10.725691,2.5045886 11.050277,2.5045886 h 8.901978 c -0.05625,-0.1778841 -0.112049,-0.3557363 -0.168297,-0.5340982 -1.079281,0.719499 -2.157542,1.43903 -3.236822,2.158529 -0.325097,0.2165505 0.07033,0.677807 0.392428,0.4627535 1.079248,-0.719499 2.158529,-1.4385203 3.237809,-2.1580194 0.213525,-0.1427214 0.08342,-0.5336205 -0.168329,-0.5336205 h -8.901977 c 0.03465,0.1919301 0.06781,0.3843698 0.101984,0.5763318 1.124508,-0.6295856 2.248475,-1.2586615 3.371486,-1.88824713 0.339652,-0.1899236 0.08291,-0.7401062 -0.260281,-0.5481761"
     style="fill:#000000;fill-opacity:1;fill-rule:nonzero;stroke:none;stroke-width:0.352777"
     id="path246" />
</svg>
