<?xml version="1.0" encoding="UTF-8" standalone="no"?>
<!-- Created with Inkscape (http://www.inkscape.org/) -->

<svg
   width="140.52167"
   height="84.021744"
   viewBox="0 0 37.179223 22.230473"
   version="1.1"
   id="svg1615"
   xmlns="http://www.w3.org/2000/svg"
   xmlns:svg="http://www.w3.org/2000/svg">
  <defs
     id="defs1612" />
  <path
     d="m 8.7987168,22.131763 c 0.2505391,0.0096 2.8239852,0.09871 6.1612212,0.09871 3.582237,0 8.044219,-0.103786 11.460441,-0.524397 2.066723,-0.332066 0.308747,-0.04353 2.066723,-0.332066 0.350762,-0.06985 0.705617,-0.139204 1.008825,-0.221189 5.169611,-1.386434 7.683297,-5.298726 7.683297,-11.9585216 0,-2.921668 -0.907579,-5.34829 -2.557712,-6.834947 -1.275099,-1.149018 -2.932816,-1.6825534 -4.668531,-1.5013334 -3.620689,0.3781024 -6.466935,4.5591724 -6.620815,9.726772 -0.0896,3.039071 0.839742,6.369252 2.152764,9.259029 -3.197537,0.338134 -7.23531,0.430243 -10.542701,0.430243 -3.403063,0 -6.0109052,-0.09211 -6.0721462,-0.09412 h -0.03694 c -0.521892,0 -0.956686,0.414544 -0.974395,0.940987 -0.02025,0.539567 0.400892,0.992105 0.939965,1.010837 M 35.226871,9.1942954 c 0,5.8089066 -1.922473,8.9158516 -6.236644,10.0724896 -0.427703,0.114898 -0.92476,0.215121 -1.460305,0.306737 -1.325687,-2.753608 -2.331479,-6.029637 -2.244909,-8.931057 0.122483,-4.1253656 2.262124,-7.5704086 4.868942,-7.8432436 1.196114,-0.123506 2.289958,0.225739 3.161096,1.009319 1.232555,1.112577 1.91182,3.023903 1.91182,5.385755"
     style="fill:#000000;fill-opacity:1;fill-rule:nonzero;stroke:none;stroke-width:0.352773"
     id="path41366" />
  <path
     d="m 7.5360348,7.0664734 c -0.05313,-0.585145 0.283489,-1.09388 0.753206,-1.136389 0.193885,-0.01771 4.7738002,-0.433805 7.1108172,-0.348752 2.36337,0.08403 5.424736,0.824573 5.553816,0.854946 0.466684,0.113382 0.786085,0.674715 0.713202,1.249241 -0.07239,0.576044 -0.509722,0.951112 -0.976406,0.836708 -0.02939,-0.0056 -3.050748,-0.737508 -5.271386,-0.816459 -2.249459,-0.081 -6.8901212,0.339651 -6.9361582,0.344201 -0.469753,0.04251 -0.892905,-0.397363 -0.947091,-0.983496"
     style="fill:#000000;fill-opacity:1;fill-rule:nonzero;stroke:none;stroke-width:0.352773"
     id="path41368" />
  <path
     d="M 11.171011,0.984519 C 11.171011,0.44139 11.491929,0 11.889293,0 c 0.164005,0 4.038831,0.0035 5.99316,0.278373 1.977648,0.276892 4.488829,1.2158694 4.59512,1.2558384 0.382688,0.143755 0.607405,0.686391 0.502631,1.209765 -0.104774,0.524927 -0.50062,0.83318 -0.883768,0.689425 -0.02431,-0.0091 -2.503067,-0.936436 -4.360772,-1.19509 -1.880458,-0.26525 -5.806366,-0.268778 -5.846371,-0.268778 -0.397364,0 -0.718282,-0.440896 -0.718282,-0.9850144"
     style="fill:#000000;fill-opacity:1;fill-rule:nonzero;stroke:none;stroke-width:0.352773"
     id="path41370" />
  <path
     d="m 2.1145119e-5,13.666438 c 0,0.07288 0.01316000488,0.137688 0.01774000488,0.208031 0.19183804,-0.03136 0.38773304,-0.03895 0.58260494,-0.02681 -0.0011,-0.05165 -0.0091,-0.09768 -0.0066,-0.150846 0.06886,-1.331261 1.14802981,-2.049507 2.13000981,-2.049507 0.551737,0 1.147007,0.294072 1.590408,0.787602 0.44393,0.493529 0.674256,1.116139 0.614531,1.66636 -0.0025,0.02579 -0.0096,0.04604 -0.01316,0.07186 0.199917,-0.02833 0.403396,-0.03542 0.605359,-0.01669 0.01266,-0.125552 0.01623,-0.252585 0.0081,-0.379654 -0.03845,-0.607403 -0.308776,-1.224439 -0.77292,-1.739241 -0.561862,-0.626138 -1.308471,-0.89541 -2.032327,-0.985508 C 2.2449129,10.992805 -0.00352295,11.6073 4.1451188e-6,13.666438"
     style="fill:#000000;fill-opacity:1;fill-rule:nonzero;stroke:none;stroke-width:0.352773"
     id="path41372" />
</svg>
