<?xml version="1.0" encoding="UTF-8" standalone="no"?>
<!-- Created with Inkscape (http://www.inkscape.org/) -->

<svg
   width="94.475998"
   height="142.53644"
   viewBox="0 0 24.996775 37.712767"
   version="1.1"
   id="svg1615"
   xmlns="http://www.w3.org/2000/svg"
   xmlns:svg="http://www.w3.org/2000/svg">
  <defs
     id="defs1612" />
  <path
     d="m 0,25.322858 c 0.38167,2.380016 0.05041,0.355424 0.38167,2.380016 0.08128,0.403824 0.161255,0.813047 0.255341,1.161767 1.596531,5.953408 6.101891,8.848126 13.771421,8.848126 3.364407,0 6.159042,-1.045528 7.871143,-2.945801 1.323058,-1.46819 1.937209,-3.377176 1.728223,-5.376192 -0.434763,-4.16941 -5.249862,-7.447139 -11.200589,-7.624515 -3.500155,-0.1028 -7.33492,0.966928 -10.663061,2.479463 z m 14.408432,10.141585 c -6.68983,0 -10.267244,-2.214033 -11.599721,-7.182379 -0.131692,-0.492513 -0.247932,-1.065036 -0.353448,-1.681198 3.171578,-1.526645 6.943866,-2.685062 10.284742,-2.585614 4.751317,0.141111 8.718444,2.605123 9.032911,5.607332 0.142451,1.376822 -0.260033,2.636697 -1.162439,3.639926 -1.280724,1.41912 -3.482692,2.201933 -6.202045,2.201933"
     style="fill:#000000;fill-opacity:1;fill-rule:nonzero;stroke:none;stroke-width:0.352778"
     id="path132" />
  <path
     d="m 16.858756,3.5755904 c 0.673947,-0.06114 1.259876,0.326566 1.308947,0.86748 0.02081,0.223097 0.499251,5.497831 0.401814,8.1882896 -0.09677,2.722034 -0.950136,6.247695 -0.985062,6.396179 -0.131056,0.537563 -0.776111,0.905122 -1.438627,0.821125 -0.662552,-0.08333 -1.094599,-0.586598 -0.963578,-1.124161 0.0067,-0.03425 0.849348,-3.513561 0.940047,-6.070318 0.09342,-2.591012 -0.391054,-7.9349596 -0.395781,-7.9880176 -0.04971,-0.540914 0.457588,-1.0281 1.13224,-1.090577"
     style="fill:#000000;fill-opacity:1;fill-rule:nonzero;stroke:none;stroke-width:0.352778"
     id="path134" />
  <path
     d="m 23.863194,7.7616514 c 0.624911,0 1.133581,0.36957 1.133581,0.827158 0,0.188807 -0.0047,4.6511626 -0.321204,6.9014976 -0.318488,2.277886 -1.399646,5.169252 -1.44533,5.292231 -0.165982,0.440125 -0.790223,0.699488 -1.394284,0.57852 -0.604097,-0.120932 -0.958885,-0.576509 -0.793574,-1.017976 0.01076,-0.02755 1.079148,-2.882617 1.376821,-5.021403 0.305047,-2.165668 0.309739,-6.6865146 0.309739,-6.7328696 0,-0.457588 0.50733,-0.827158 1.134251,-0.827158"
     style="fill:#000000;fill-opacity:1;fill-rule:nonzero;stroke:none;stroke-width:0.352778"
     id="path136" />
  <path
     d="m 9.82659,0.00509126 c 0.673312,-0.06114 1.27,0.435433 1.331136,1.11005004 0.02554,0.278201 0.62357,6.8605051 0.585929,10.2108357 -0.0356,3.389277 -0.810366,7.76291 -0.84261,7.947025 -0.118921,0.666573 -0.757273,1.11005 -1.423176,0.991129 C 8.811966,20.14588 8.367148,19.508869 8.48741,18.842295 c 0.0061,-0.043 0.771419,-4.359557 0.805004,-7.54253 C 9.328014,8.0737544 8.722607,1.4047373 8.715904,1.3382383 8.654734,0.66358626 9.151973,0.06756826 9.82659,0.00509126"
     style="fill:#000000;fill-opacity:1;fill-rule:nonzero;stroke:none;stroke-width:0.352778"
     id="path138" />
</svg>
