<?xml version="1.0" encoding="UTF-8" standalone="no"?>
<!-- Created with Inkscape (http://www.inkscape.org/) -->

<svg
   width="139.19121"
   height="136.12315"
   viewBox="0 0 36.82721 36.015463"
   version="1.1"
   id="svg1615"
   xmlns="http://www.w3.org/2000/svg"
   xmlns:svg="http://www.w3.org/2000/svg">
  <defs
     id="defs1612">
    <clipPath
       clipPathUnits="userSpaceOnUse"
       id="clipPath16093">
      <path
         d="M 162.3067,187.5022 H 854.256 V 344.1768 H 162.3067 Z"
         id="path16091" />
    </clipPath>
    <clipPath
       clipPathUnits="userSpaceOnUse"
       id="clipPath16033">
      <path
         d="M 162.3067,187.5022 H 854.256 V 344.1768 H 162.3067 Z"
         id="path16031" />
    </clipPath>
  </defs>
  <path
     d="m 1.1813003,9.252186 c 0.315168,-0.01199 3.5467829,-0.124388 7.7377649,-0.124388 4.5003998,0 10.1041338,0.130738 14.3955148,0.659333 0.656159,-1.195513 1.345196,-2.302622 2.043687,-3.258179 3.050395,-4.183997 5.84436,-6.214419 5.963068,-6.298415 C 31.536703,0.073906 31.78682,0 32.034361,0 c 0.380219,0 0.755358,0.17748 0.995949,0.509687 0.395353,0.548174 0.27093,1.313622 -0.277244,1.71021 -0.02526,0.01894 -2.61144,1.911714 -5.414259,5.75405 -0.479349,0.657428 -0.958062,1.421606 -1.429191,2.228751 0.441461,0.0884 0.885426,0.17554 1.267515,0.279115 6.492334,1.740548 9.650079,6.65401 9.650079,15.0195 0,3.669301 -1.140587,6.717792 -3.212707,8.585303 -1.601591,1.442455 -3.683835,2.111878 -5.863939,1.885785 -4.547778,-0.475538 -8.121089,-5.727521 -8.314973,-12.217951 -0.112394,-3.817078 1.054051,-7.99917 2.703055,-11.629313 -4.015407,-0.424422 -9.088005,-0.539991 -13.2416998,-0.539991 -4.2737069,0 -7.5482899,0.115569 -7.6265709,0.117474 h -0.04611 c -0.65492401,0 -1.19995901,-0.519141 -1.22331200622,-1.181015 C -0.02557671,9.844598 0.50492529,9.275575 1.1812973,9.252186 M 34.374268,25.501313 c 0,-7.296904 -2.415051,-11.197978 -7.832485,-12.651192 -0.53745,-0.143332 -1.16267,-0.270295 -1.834633,-0.383958 -1.664138,3.457707 -2.927877,7.572279 -2.818624,11.216286 0.153492,5.181887 2.840073,9.507347 6.115291,9.850278 1.501191,0.155361 2.874185,-0.283559 3.968664,-1.26815 1.548569,-1.395077 2.401787,-3.797499 2.401787,-6.763264"
     style="fill:#000000;fill-opacity:1;fill-rule:nonzero;stroke:none;stroke-width:0.352773"
     id="path16035-6" />
  <path
     d="M 7.4976508,1.5010654 V 19.510797 c 0,0.869781 -1.7083588,1.002859 -1.7083588,0.127958 V 1.6296673 c 0,-0.87042527 1.7083588,-1.00285887 1.7083588,-0.1286019"
     style="fill:#000000;fill-opacity:1;fill-rule:nonzero;stroke:none;stroke-width:0.352773"
     id="path2594-3" />
  <path
     d="M 12.428892,1.5010654 V 19.510797 c 0,0.869781 -1.708358,1.002859 -1.708358,0.127958 V 1.6296673 c 0,-0.87042527 1.708358,-1.00285887 1.708358,-0.1286019"
     style="fill:#000000;fill-opacity:1;fill-rule:nonzero;stroke:none;stroke-width:0.352773"
     id="path2594-3-5" />
</svg>
