<?xml version="1.0" encoding="UTF-8" standalone="no"?>
<!-- Created with Inkscape (http://www.inkscape.org/) -->

<svg
   width="167.51312"
   height="66.15036"
   viewBox="0 0 44.320622 17.502062"
   version="1.1"
   id="svg1615"
   xmlns="http://www.w3.org/2000/svg"
   xmlns:svg="http://www.w3.org/2000/svg">
  <defs
     id="defs1612" />
  <path
     d="M 23.951556,0.11515865 C 17.220061,0.70573781 13.103364,5.7649098 11.9785,9.0200352 c -0.78621,2.2744208 -1.007802,4.0767618 -1.072626,4.9159328 -5.217572,0.02654 -9.7951954,0.09295 -9.8676896,0.09401 -0.58158617,0.0086 -1.04662065,0.487468 -1.03806830282,1.069054 C 0.0086693,15.680674 0.48758469,16.145707 1.0691709,16.137154 c 0.1161164,-0.0017 11.6666101,-0.169859 18.9945381,-0.07581 2.16472,0.02671 22.46797,0.224395 23.248687,0.04002 0.234269,-0.05549 0.659088,-0.237316 0.869689,-0.826836 C 44.62129,14.049812 44.13485,10.037756 40.98388,5.8855414 37.747613,1.6193931 31.380927,-0.53868166 23.951556,0.11515565 M 13.969848,9.7081756 C 14.915591,6.9714469 18.402922,2.7179127 24.1367,2.214459 c 6.702621,-0.5901552 12.373425,1.2593981 15.169003,4.9447634 2.285834,3.0153646 2.866784,5.7436076 2.908081,6.9083296 -2.851416,0.03793 -14.842957,-0.02153 -22.123479,-0.114218 -2.128432,-0.02635 -4.60973,-0.03074 -7.064803,-0.02532 0.06957,-0.763927 0.27581,-2.287329 0.944346,-4.2198404"
     style="fill:#000000;fill-opacity:1;fill-rule:nonzero;stroke:none;stroke-width:0.352774"
     id="path11305" />
</svg>
