<?xml version="1.0" encoding="UTF-8" standalone="no"?>
<!-- Created with Inkscape (http://www.inkscape.org/) -->

<svg
   width="98.33831"
   height="98.576408"
   viewBox="0 0 26.018679 26.081676"
   version="1.1"
   id="svg1615"
   xmlns="http://www.w3.org/2000/svg"
   xmlns:svg="http://www.w3.org/2000/svg">
  <defs
     id="defs1612" />
  <g
     id="layer1"
     transform="translate(-6.32144,-114.23359)">
    <path
       d="m 10.5185,114.99216 c -0.01228,0.59196 -0.297533,14.53236 0.58173,18.01453 0.564833,2.24345 1.890078,7.4979 8.680803,7.30331 6.062521,-0.17258 8.30647,-5.34921 8.336703,-8.78731 0.02766,-3.1872 0.555096,-16.11573 0.560211,-16.2458 0.01792,-0.42708 -0.39123,-0.78709 -0.913059,-0.80243 -0.521794,-0.0164 -0.960155,0.31746 -0.978077,0.74507 -0.0041,0.13059 -0.532553,13.07958 -0.560705,16.28676 -0.02409,2.7335 -1.813806,7.12152 -6.51778,7.25466 -4.306606,0.12344 -5.816741,-2.33405 -6.755906,-6.06252 -0.836225,-3.31523 -0.54536,-17.53062 -0.54282,-17.6735 0.0092,-0.42809 -0.407105,-0.78193 -0.929428,-0.79117 -0.5213,-0.009 -0.952465,0.3308 -0.961672,0.7584"
       style="fill:#000000;fill-opacity:1;fill-rule:nonzero;stroke:none;stroke-width:0.352778"
       id="path202" />
    <path
       d="m 7.1513066,121.42746 c 8.0698974,0.0707 16.1402884,0.1408 24.2112444,0.21149 1.16907,0.0102 1.361087,-1.42822 0.184855,-1.43845 -8.07092,-0.0707 -16.140817,-0.14083 -24.2112438,-0.21149 -1.1695994,-0.0102 -1.3616164,1.42819 -0.1848556,1.43845"
       style="fill:#000000;fill-opacity:1;fill-rule:nonzero;stroke:none;stroke-width:0.352778"
       id="path206" />
    <path
       d="m 7.1145472,125.64302 c 8.0698978,0.0707 16.1402888,0.14082 24.2107148,0.21149 1.1696,0.0102 1.361617,-1.42823 0.18535,-1.43846 -8.071415,-0.0707 -16.140818,-0.14082 -24.2112093,-0.21149 -1.1695994,-0.0102 -1.3616163,1.42819 -0.1848555,1.43846"
       style="fill:#000000;fill-opacity:1;fill-rule:nonzero;stroke:none;stroke-width:0.352778"
       id="path208" />
  </g>
</svg>
