<?xml version="1.0" encoding="UTF-8" standalone="no"?>
<!-- Created with Inkscape (http://www.inkscape.org/) -->

<svg
   width="93.841156"
   height="121.70187"
   viewBox="0 0 24.828807 32.200288"
   version="1.1"
   id="svg1615"
   xmlns="http://www.w3.org/2000/svg"
   xmlns:svg="http://www.w3.org/2000/svg">
  <defs
     id="defs1612" />
  <path
     d="m 6.3787174,7.6258934 c -0.009,0.217206 -0.08562,2.4450326 -0.08562,5.3347406 0,3.101834 0.09006,6.965245 0.454237,9.923957 -0.824795,0.452331 -1.587006,0.927664 -2.245713,1.408747 -2.885863,2.103226 -4.284415,4.028864 -4.342553,4.111272 C 0.0511184,28.552848 4e-7,28.725356 4e-7,28.895924 c 0,0.261938 0.122026,0.5207 0.350732,0.686188 0.378883,0.273438 0.906604,0.187184 1.180042,-0.190394 0.01277,-0.01789 1.317413,-1.801036 3.96688,-3.733059 0.453002,-0.330306 0.980087,-0.660612 1.536559,-0.985167 0.06068,0.304094 0.120756,0.610764 0.192299,0.873371 1.199833,4.476715 4.5872746,6.653425 10.3545566,6.653425 2.528746,0 4.630067,-0.786483 5.917424,-2.215057 0.995398,-1.103982 1.456055,-2.539576 1.300797,-4.042904 -0.327765,-3.134395 -3.947724,-5.597983 -8.423169,-5.732145 -2.632251,-0.07733 -5.514305,0.72704 -8.0168396,1.863655 -0.292629,-2.768353 -0.372498,-6.265016 -0.372498,-9.128513 0,-2.9465766 0.07987,-5.2037896 0.08114,-5.2581176 v -0.03193 c 0,-0.451697 -0.357752,-0.826735 -0.813929,-0.842716 -0.467677,-0.01852 -0.859331,0.347557 -0.875277,0.813329 M 17.58107,30.509142 c -5.030646,0 -7.7197656,-1.66497 -8.7221836,-5.399935 -0.09902,-0.370557 -0.186549,-0.801158 -0.264512,-1.264355 2.3837186,-1.14748 5.2197696,-2.018912 7.7325356,-1.943524 3.572051,0.10541 6.555069,1.957564 6.790796,4.216048 0.10735,1.035014 -0.196145,1.981235 -0.874642,2.735756 -0.962166,1.067576 -2.618176,1.65601 -4.661994,1.65601"
     style="fill:#000000;fill-opacity:1;fill-rule:nonzero;stroke:none;stroke-width:0.352778"
     id="path36823" />
  <path
     d="m 10.917204,6.1113134 c -0.463833,-0.04216 -0.875912,0.300919 -0.9174336,0.765421 -0.01789,0.192935 -0.430636,4.7316316 -0.40379,7.0418676 0.02427,2.337083 0.5583766,5.352662 0.5807426,5.479803 0.08177,0.459987 0.522005,0.765387 0.981357,0.684248 0.458717,-0.08241 0.764752,-0.521335 0.682978,-0.980687 -0.0045,-0.03006 -0.532201,-3.006654 -0.555202,-5.201885 -0.02491,-2.223981 0.392924,-6.8233916 0.39804,-6.8687586 0.04152,-0.465103 -0.301555,-0.876547 -0.766692,-0.920009"
     style="fill:#000000;fill-opacity:1;fill-rule:nonzero;stroke:none;stroke-width:0.352778"
     id="path36825" />
  <path
     d="m 8.6361784,0.0344334 c -0.971127,0.544336 -1.942889,1.088037 -2.91465,1.632373 -0.205705,0.115006 -0.192934,0.498334 0.08752,0.498334 h 7.6954936 c -0.04858,-0.153987 -0.09648,-0.307304 -0.145027,-0.461927 -0.932144,0.6223 -1.864924,1.24393 -2.798374,1.866195 -0.280458,0.187219 0.06135,0.585893 0.339901,0.399979 0.932145,-0.6223 1.86556,-1.243295 2.79834,-1.86496 0.184643,-0.123931 0.07285,-0.461892 -0.145662,-0.461892 H 5.8595344 c 0.02875,0.165453 0.05814,0.332211 0.08752,0.498334 0.971761,-0.543701 1.943523,-1.088037 2.91465,-1.631738 0.293228,-0.164218 0.07091,-0.640186 -0.225531,-0.474698"
     style="fill:#000000;fill-opacity:1;fill-rule:nonzero;stroke:none;stroke-width:0.352778"
     id="path36827" />
</svg>
