<?xml version="1.0" encoding="UTF-8" standalone="no"?>
<!-- Created with Inkscape (http://www.inkscape.org/) -->

<svg
   width="110.11573"
   height="169.45242"
   viewBox="0 0 29.13442 44.833721"
   version="1.1"
   id="svg1615"
   xmlns="http://www.w3.org/2000/svg"
   xmlns:svg="http://www.w3.org/2000/svg">
  <defs
     id="defs1612" />
  <path
     d="M 0.126857,8.3898019 C 0.113977,8.7118839 0,12.015959 0,16.30092 c 0,4.601223 0.133842,10.329556 0.673409,14.717421 0.426185,2.653385 0.05613,0.395177 0.426185,2.653385 0.09003,0.450738 0.179456,0.905533 0.284089,1.294854 1.780058,6.639085 6.803939,9.86714 15.355764,9.86714 3.75185,0 6.867649,-1.166822 8.776894,-3.28476 1.47491,-1.637408 2.160031,-3.767037 1.926777,-5.995471 C 26.957914,30.904325 21.589727,27.250687 14.953567,27.053098 11.050906,26.937953 6.775258,28.130503 3.064365,29.815843 2.630595,25.711501 2.511922,20.525698 2.511922,16.278131 c 0,-4.368568 0.118673,-7.7170571 0.121001,-7.7971371 v -0.04678 c 0,-0.669916 -0.531946,-1.227016 -1.207719,-1.251004 -0.693305,-0.02628 -1.274394,0.514449 -1.298347,1.20659 m 16.61259,33.9366531 c -7.4592511,0 -11.448412,-2.469872 -12.933834,-8.009331 C 3.658294,33.767607 3.529109,33.129229 3.4116,32.441779 c 3.536129,-1.701143 7.742175,-2.99247 11.467708,-2.881417 5.298056,0.156102 9.720986,2.903642 10.071749,6.252096 0.15843,1.535693 -0.289944,2.939872 -1.296019,4.05817 -1.428132,1.58246 -3.883364,2.455825 -6.915591,2.455825"
     style="fill:#000000;fill-opacity:1;fill-rule:nonzero;stroke:none;stroke-width:0.352773"
     id="path11333" />
  <path
     d="m 18.149587,3.4985649 c -0.194095,3.598676 -5.234944,3.904989 -5.817161,0.328502 -0.267155,-1.637961 1.115363,-2.95211298 2.606642,-3.19411498 1.801684,-0.293472 3.125748,1.33457698 3.214012,2.96498898 0.02632,0.474657 0.753524,0.341379 0.727242,-0.129221 -0.250222,-4.650328 -7.049469,-4.609407 -7.299092,0.02985 -0.111053,2.053035 1.699944,3.582872 3.616809,3.68694 2.053035,0.110488 3.584071,-1.700544 3.68694,-3.617373 0.02632,-0.474692 -0.710274,-0.545423 -0.735392,-0.06957"
     style="fill:#000000;fill-opacity:1;fill-rule:nonzero;stroke:none;stroke-width:0.352773"
     id="path11335" />
  <path
     d="m 27.868245,12.000049 c 0.698562,0 1.266174,0.414473 1.266174,0.924795 0,0.211029 -0.0047,5.196351 -0.358347,7.709473 -0.355419,2.542332 -1.563138,5.772712 -1.614608,5.909518 -0.184712,0.492224 -0.882709,0.782169 -1.557318,0.645963 -0.674608,-0.134477 -1.070949,-0.642471 -0.886202,-1.13586 0.01168,-0.03214 1.204792,-3.219867 1.538021,-5.60846 0.341379,-2.419002 0.344907,-7.469164 0.344907,-7.520634 0,-0.510322 0.567612,-0.924795 1.267373,-0.924795"
     style="fill:#000000;fill-opacity:1;fill-rule:nonzero;stroke:none;stroke-width:0.352773"
     id="path11337" />
</svg>
