<?xml version="1.0" encoding="UTF-8" standalone="no"?>
<!-- Created with Inkscape (http://www.inkscape.org/) -->

<svg
   width="95.528183"
   height="161.69827"
   viewBox="0 0 25.275166 42.782669"
   version="1.1"
   id="svg1615"
   xmlns="http://www.w3.org/2000/svg"
   xmlns:svg="http://www.w3.org/2000/svg">
  <defs
     id="defs1612" />
  <path
     d="M 3.9431868,0.04456176 C 2.6900142,0.74606037 1.4361715,1.4489348 0.1816584,2.1511037 -0.0844066,2.2995879 -0.06761438,2.7941471 0.29454729,2.7941471 H 10.227852 C 10.164705,2.5959212 10.102898,2.3970251 10.040386,2.1987993 8.8369554,3.0011218 7.632819,3.8040793 6.4280476,4.6070368 6.0658507,4.8482662 6.5066465,5.3622987 6.8675029,5.1231154 8.0702634,4.3201226 9.2743998,3.5171651 10.478501,2.7148779 10.717049,2.5555987 10.573257,2.1202004 10.291035,2.1202004 H 0.35974062 c 0.0369358,0.2136775 0.0752475,0.4286955 0.11288889,0.642373 C 1.7264723,2.0604045 2.9803151,1.3588707 4.2348281,0.65603148 4.6124415,0.44369454 4.3261976,-0.16911574 3.9431868,0.04456176"
     style="fill:#000000;fill-opacity:1;fill-rule:nonzero;stroke:none;stroke-width:0.352778"
     id="path84" />
  <path
     d="m 14.710176,33.326782 c -1.250456,2.327592 -2.500277,4.656561 -3.751439,6.984153 -0.456247,0.850688 0.796925,1.691958 1.255854,0.835907 1.250491,-2.328968 2.500312,-4.656561 3.750769,-6.984859 0.456247,-0.849983 -0.79622,-1.690582 -1.255184,-0.835201"
     style="fill:#000000;fill-opacity:1;fill-rule:nonzero;stroke:none;stroke-width:0.352778"
     id="path86" />
  <path
     d="m 1.7578342,11.460098 c -0.010724,0.27686 -0.1088319,3.116474 -0.1088319,6.799404 0,3.955027 0.1148997,8.878358 0.5785203,12.64927 0.3662186,2.280603 0.048401,0.339337 0.3662186,2.280603 0.077929,0.387703 0.1545519,0.778086 0.2445808,1.112731 1.5300325,5.70611 5.848597,8.480567 13.198263,8.480567 3.224672,0 5.903031,-1.00323 7.543906,-2.823493 1.267954,-1.407054 1.856564,-3.237441 1.656327,-5.15246 C 24.819553,30.8107 20.205325,27.670696 14.501896,27.500692 11.148214,27.401244 7.4726932,28.427298 4.2830176,29.875345 3.9100609,26.347638 3.8079318,21.890679 3.8079318,18.239993 c 0,-3.75479 0.1021291,-6.632716 0.10414,-6.701261 v -0.04032 c 0,-0.57584 -0.4575881,-1.054947 -1.0387895,-1.075761 C 2.2779345,10.400461 1.7786834,10.865458 1.7578342,11.4601 M 16.036585,40.627765 c -6.4102893,0 -9.8405593,-2.122664 -11.1172621,-6.884071 -0.1263298,-0.471699 -0.2371725,-1.020656 -0.3379964,-1.611312 3.0398861,-1.462123 6.6549415,-2.572173 9.8567165,-2.476747 4.553762,0.134373 8.354942,2.495585 8.656638,5.373511 0.136384,1.319671 -0.249308,2.527159 -1.114072,3.48802 -1.227667,1.360029 -3.33756,2.110599 -5.944024,2.110599"
     style="fill:#000000;fill-opacity:1;fill-rule:nonzero;stroke:none;stroke-width:0.352778"
     id="path88" />
  <path
     d="M 8.0205571,7.7458771 C 7.3754676,7.6867515 6.8036501,8.1638482 6.7445245,8.8095726 6.720324,9.0763432 6.1471659,15.385209 6.1827965,18.595064 c 0.034255,3.249507 0.7780867,7.43973 0.8083197,7.616437 0.1135592,0.638351 0.7263695,1.063695 1.3640506,0.950806 0.6376811,-0.114899 1.0636955,-0.725699 0.9487958,-1.36338 C 9.2978948,25.75797 8.5654929,21.620804 8.5325434,18.570863 8.4982887,15.47993 9.0795254,9.0884435 9.0855579,9.0232501 9.1440132,8.3775257 8.6669518,7.8057082 8.0205571,7.7458771"
     style="fill:#000000;fill-opacity:1;fill-rule:nonzero;stroke:none;stroke-width:0.352778"
     id="path90" />
</svg>
