<?xml version="1.0" encoding="UTF-8" standalone="no"?>
<!-- Created with Inkscape (http://www.inkscape.org/) -->

<svg
   width="139.19121"
   height="132.69333"
   viewBox="0 0 36.82721 35.108"
   version="1.1"
   id="svg1615"
   xmlns="http://www.w3.org/2000/svg"
   xmlns:svg="http://www.w3.org/2000/svg">
  <defs
     id="defs1612">
    <clipPath
       clipPathUnits="userSpaceOnUse"
       id="clipPath16093">
      <path
         d="M 162.3067,187.5022 H 854.256 V 344.1768 H 162.3067 Z"
         id="path16091" />
    </clipPath>
    <clipPath
       clipPathUnits="userSpaceOnUse"
       id="clipPath16033">
      <path
         d="M 162.3067,187.5022 H 854.256 V 344.1768 H 162.3067 Z"
         id="path16031" />
    </clipPath>
  </defs>
  <path
     d="m 1.1813003,8.3447233 c 0.315168,-0.011994 3.546783,-0.1243879 7.737765,-0.1243879 4.5003997,0 10.1041337,0.1307378 14.3955147,0.6593333 l 2.595036,0.4155666 c 0.441461,0.0884 0.885426,0.17554 1.267515,0.279115 6.492334,1.7405477 9.650079,6.6540097 9.650079,15.0194997 0,3.669301 -1.140587,6.717792 -3.212707,8.585303 -1.601591,1.442455 -3.683835,2.111878 -5.863939,1.885785 -4.547778,-0.475538 -8.121089,-5.727521 -8.314973,-12.217951 -0.112394,-3.817078 1.054051,-7.99917 2.703055,-11.629313 -4.015407,-0.424422 -9.088005,-0.539991 -13.2416997,-0.539991 -4.273707,0 -7.54829,0.115569 -7.626571,0.117474 h -0.04611 c -0.65492401,0 -1.19995901,-0.519141 -1.22331200622,-1.1810147 C -0.02557671,8.9371355 0.50492529,8.3681121 1.1812973,8.3447233 M 34.374268,24.59385 c 0,-7.296904 -2.415051,-11.197978 -7.832485,-12.651192 -0.53745,-0.143332 -1.16267,-0.270295 -1.834633,-0.383958 -1.664138,3.457707 -2.927877,7.572279 -2.818624,11.216286 0.153492,5.181887 2.840073,9.507347 6.115291,9.850278 1.501191,0.155361 2.874185,-0.283559 3.968664,-1.26815 1.548569,-1.395077 2.401787,-3.797499 2.401787,-6.763264"
     style="fill:#000000;fill-opacity:1;fill-rule:nonzero;stroke:none;stroke-width:0.352773"
     id="path16035" />
  <path
     d="m 26.065695,23.084065 c 2.649383,-1.422501 5.299418,-2.845751 7.948081,-4.269661 0.968353,-0.518937 1.925799,0.906993 0.951999,1.429359 -2.65074,1.423252 -5.299404,2.845751 -7.949439,4.269003 -0.967685,0.518938 -1.924425,-0.906333 -0.950641,-1.428701"
     style="fill:#000000;fill-opacity:1;fill-rule:nonzero;stroke:none;stroke-width:0.352774"
     id="path230" />
  <path
     d="M 7.4976506,0.59360244 V 18.603334 c 0,0.869781 -1.7083588,1.002859 -1.7083588,0.127958 V 0.72220434 c 0,-0.87042531 1.7083588,-1.00285891 1.7083588,-0.1286019"
     style="fill:#000000;fill-opacity:1;fill-rule:nonzero;stroke:none;stroke-width:0.352773"
     id="path2594-3" />
  <path
     d="M 12.428892,0.59360244 V 18.603334 c 0,0.869781 -1.708358,1.002859 -1.708358,0.127958 V 0.72220434 c 0,-0.87042531 1.708358,-1.00285891 1.708358,-0.1286019"
     style="fill:#000000;fill-opacity:1;fill-rule:nonzero;stroke:none;stroke-width:0.352773"
     id="path2594-3-5" />
</svg>
