<?xml version="1.0" encoding="UTF-8" standalone="no"?>
<!-- Created with Inkscape (http://www.inkscape.org/) -->

<svg
   width="100.95296"
   height="98.576408"
   viewBox="0 0 26.710471 26.081676"
   version="1.1"
   id="svg1615"
   xmlns="http://www.w3.org/2000/svg"
   xmlns:svg="http://www.w3.org/2000/svg">
  <defs
     id="defs1612" />
  <path
     d="m 4.8888537,0.75857 c -0.01228,0.59196 -0.297533,14.53236 0.58173,18.01453 0.564833,2.24345 1.890078,7.4979 8.6808033,7.30331 6.062521,-0.17258 8.30647,-5.34921 8.336703,-8.78731 0.02766,-3.1872 0.555096,-16.11573 0.560211,-16.2458 0.01792,-0.42708 -0.39123,-0.78709 -0.913059,-0.80243 -0.521794,-0.0164 -0.960155,0.31746 -0.978077,0.74507 -0.0041,0.13059 -0.532553,13.07958 -0.560705,16.28676 -0.02409,2.7335 -1.813806,7.12152 -6.51778,7.25466 C 9.7720737,24.6508 8.2619387,22.19331 7.3227737,18.46484 6.4865487,15.14961 6.7774137,0.93422 6.7799537,0.79134 6.7891537,0.36325 6.3728487,0.00941 5.8505257,1.7e-4 c -0.5213,-0.009 -0.952465,0.3308 -0.961672,0.7584"
     style="fill:#000000;fill-opacity:1;fill-rule:nonzero;stroke:none;stroke-width:0.352778"
     id="path202" />
  <path
     d="M 1.5216603,7.19387 C 9.5915577,7.26457 17.661949,7.33467 25.732905,7.40536 26.901975,7.41556 27.093992,5.97714 25.91776,5.96691 17.84684,5.89621 9.7769427,5.82608 1.7065159,5.75542 0.5369165,5.74522 0.3448995,7.18361 1.5216603,7.19387"
     style="fill:#000000;fill-opacity:1;fill-rule:nonzero;stroke:none;stroke-width:0.352778"
     id="path206" />
  <path
     d="m 1.4849009,11.40943 c 8.0698978,0.0707 16.1402891,0.14082 24.2107151,0.21149 1.1696,0.0102 1.361617,-1.42823 0.18535,-1.43846 C 17.809551,10.11176 9.7401477,10.04164 1.6697564,9.97097 0.500157,9.96077 0.3081401,11.39916 1.4849009,11.40943"
     style="fill:#000000;fill-opacity:1;fill-rule:nonzero;stroke:none;stroke-width:0.352778"
     id="path208" />
  <path
     d="m 13.340548,16.949522 c -1.945084,1.661039 -3.8910776,3.322902 -5.8371655,4.983588 -0.7100698,0.607143 0.1248673,1.805808 0.8397212,1.195263 1.9454823,-1.662061 3.8910893,-3.322934 5.8365593,-4.984964 0.710208,-0.605984 -0.124262,-1.804431 -0.839115,-1.193887"
     style="fill:#000000;fill-opacity:1;fill-rule:nonzero;stroke:none;stroke-width:0.352778"
     id="path2596" />
</svg>
