<?xml version="1.0" encoding="UTF-8" standalone="no"?>
<!-- Created with Inkscape (http://www.inkscape.org/) -->

<svg
   width="143.04915"
   height="136.12315"
   viewBox="0 0 37.847944 36.015463"
   version="1.1"
   id="svg1615"
   xmlns="http://www.w3.org/2000/svg"
   xmlns:svg="http://www.w3.org/2000/svg">
  <defs
     id="defs1612">
    <clipPath
       clipPathUnits="userSpaceOnUse"
       id="clipPath16093">
      <path
         d="M 162.3067,187.5022 H 854.256 V 344.1768 H 162.3067 Z"
         id="path16091" />
    </clipPath>
    <clipPath
       clipPathUnits="userSpaceOnUse"
       id="clipPath16033">
      <path
         d="M 162.3067,187.5022 H 854.256 V 344.1768 H 162.3067 Z"
         id="path16031" />
    </clipPath>
  </defs>
  <path
     d="M 2.202033,9.252187 C 2.517201,9.240193 5.748816,9.1277991 9.939798,9.1277991 c 4.5004,0 10.104134,0.1307378 14.395515,0.6593333 l 2.595036,0.4155666 c 0.441461,0.0884 0.885426,0.17554 1.267515,0.279115 6.492334,1.740548 9.650079,6.65401 9.650079,15.0195 0,3.669301 -1.140587,6.717792 -3.212707,8.585303 -1.601591,1.442455 -3.683835,2.111878 -5.863939,1.885785 -4.547778,-0.475538 -8.121089,-5.727521 -8.314973,-12.217951 -0.112394,-3.817078 1.054051,-7.99917 2.703055,-11.629313 -4.015407,-0.424422 -9.088005,-0.539991 -13.2417,-0.539991 -4.273707,0 -7.54829,0.115569 -7.626571,0.117474 h -0.04611 c -0.654924,0 -1.199959,-0.519141 -1.223312,-1.181015 C 0.995156,9.8445992 1.525658,9.2755758 2.20203,9.252187 m 33.192971,16.249127 c 0,-7.296904 -2.415051,-11.197978 -7.832485,-12.651192 -0.53745,-0.143332 -1.16267,-0.270295 -1.834633,-0.383958 -1.664138,3.457707 -2.927877,7.572279 -2.818624,11.216286 0.153492,5.181887 2.840073,9.507347 6.115291,9.850278 1.501191,0.155361 2.874185,-0.283559 3.968664,-1.26815 1.548569,-1.395077 2.401787,-3.797499 2.401787,-6.763264"
     style="fill:#000000;fill-opacity:1;fill-rule:nonzero;stroke:none;stroke-width:0.352773"
     id="path16035" />
  <path
     d="m 0.004996,15.835466 c -0.06061,-0.672597 0.437051,-1.269419 1.110919,-1.331296 0.278514,-0.02526 6.863028,-0.62335 10.214022,-0.586697 3.390151,0.03662 7.764258,0.81152 7.948688,0.843728 0.666918,0.119378 1.110248,0.757863 0.992175,1.424146 -0.118743,0.665648 -0.756593,1.110248 -1.422276,0.99027 -0.04357,-0.0057 -4.361478,-0.772397 -7.545116,-0.805241 -3.225935,-0.03535 -9.89762,0.570294 -9.963941,0.576608 -0.675102,0.06064 -1.271289,-0.43638 -1.334471,-1.111518"
     style="fill:#000000;fill-opacity:1;fill-rule:nonzero;stroke:none;stroke-width:0.352773"
     id="path16037" />
  <path
     d="M 13.427456,1.7259093 V 24.182542 c 0,1.084989 -1.686256,1.25171 -1.686256,0.159771 V 1.8856803 c 0,-1.08498956 1.686256,-1.25044026 1.686256,-0.159771"
     style="fill:#000000;fill-opacity:1;fill-rule:nonzero;stroke:none;stroke-width:0.352773"
     id="path16039" />
  <path
     d="M 8.497449,1.7259093 V 24.182542 c 0,1.084989 -1.687491,1.25171 -1.687491,0.159771 V 1.8856803 c 0,-1.08498956 1.687491,-1.25044026 1.687491,-0.159771"
     style="fill:#000000;fill-opacity:1;fill-rule:nonzero;stroke:none;stroke-width:0.352773"
     id="path16041" />
  <path
     d="m 27.086428,23.991529 c 2.649383,-1.422501 5.299418,-2.845751 7.948081,-4.269661 0.968353,-0.518937 1.925799,0.906993 0.951999,1.429359 -2.65074,1.423252 -5.299404,2.845751 -7.949439,4.269003 -0.967685,0.518938 -1.924425,-0.906333 -0.950641,-1.428701"
     style="fill:#000000;fill-opacity:1;fill-rule:nonzero;stroke:none;stroke-width:0.352774"
     id="path230" />
</svg>
