<?xml version="1.0" encoding="UTF-8" standalone="no"?>
<!-- Created with Inkscape (http://www.inkscape.org/) -->

<svg
   width="143.04915"
   height="136.12315"
   viewBox="0 0 37.847944 36.015463"
   version="1.1"
   id="svg1615"
   xmlns="http://www.w3.org/2000/svg"
   xmlns:svg="http://www.w3.org/2000/svg">
  <defs
     id="defs1612">
    <clipPath
       clipPathUnits="userSpaceOnUse"
       id="clipPath16093">
      <path
         d="M 162.3067,187.5022 H 854.256 V 344.1768 H 162.3067 Z"
         id="path16091" />
    </clipPath>
    <clipPath
       clipPathUnits="userSpaceOnUse"
       id="clipPath16033">
      <path
         d="M 162.3067,187.5022 H 854.256 V 344.1768 H 162.3067 Z"
         id="path16031" />
    </clipPath>
  </defs>
  <path
     d="m 2.2020351,9.2521859 c 0.315168,-0.011994 3.546783,-0.1243879 7.737765,-0.1243879 4.5003999,0 10.1041339,0.1307378 14.3955149,0.6593333 0.656159,-1.1955135 1.345196,-2.302622 2.043687,-3.2581791 C 29.429397,2.3449548 32.223362,0.3145327 32.34207,0.2305374 32.557438,0.073906 32.807555,0 33.055096,0 c 0.380219,0 0.755358,0.1774803 0.995949,0.5096869 0.395353,0.5481745 0.27093,1.313622 -0.277244,1.7102098 -0.02526,0.018944 -2.61144,1.9117139 -5.414259,5.7540503 -0.479349,0.6574284 -0.958062,1.421606 -1.429191,2.228751 0.441461,0.0884 0.885426,0.17554 1.267515,0.279115 6.492334,1.740548 9.650079,6.65401 9.650079,15.0195 0,3.669301 -1.140587,6.717792 -3.212707,8.585303 -1.601591,1.442455 -3.683835,2.111878 -5.863939,1.885785 C 24.223521,35.496863 20.65021,30.24488 20.456326,23.75445 20.343932,19.937372 21.510377,15.75528 23.159381,12.125137 19.143974,11.700715 14.071376,11.585146 9.9176811,11.585146 c -4.273707,0 -7.54829,0.115569 -7.626571,0.117474 h -0.04611 c -0.654924,0 -1.199959,-0.519141 -1.223312,-1.181015 -0.02653,-0.6770069 0.503972,-1.2460303 1.180344,-1.2694191 M 35.395003,25.501313 c 0,-7.296904 -2.415051,-11.197978 -7.832485,-12.651192 -0.53745,-0.143332 -1.16267,-0.270295 -1.834633,-0.383958 -1.664138,3.457707 -2.927877,7.572279 -2.818624,11.216286 0.153492,5.181887 2.840073,9.507347 6.115291,9.850278 1.501191,0.155361 2.874185,-0.283559 3.968664,-1.26815 1.548569,-1.395077 2.401787,-3.797499 2.401787,-6.763264"
     style="fill:#000000;fill-opacity:1;fill-rule:nonzero;stroke:none;stroke-width:0.352773"
     id="path16035" />
  <path
     d="m 0.00499808,15.835465 c -0.06061,-0.672597 0.437051,-1.269419 1.11091902,-1.331296 0.278514,-0.02526 6.863028,-0.62335 10.2140219,-0.586697 3.390151,0.03662 7.764258,0.81152 7.948688,0.843728 0.666918,0.119378 1.110248,0.757863 0.992175,1.424146 -0.118743,0.665648 -0.756593,1.110248 -1.422276,0.99027 -0.04357,-0.0057 -4.361478,-0.772397 -7.545116,-0.805241 -3.2259349,-0.03535 -9.8976199,0.570294 -9.9639409,0.576608 -0.67510202,0.06064 -1.27128902,-0.43638 -1.33447102,-1.111518"
     style="fill:#000000;fill-opacity:1;fill-rule:nonzero;stroke:none;stroke-width:0.352773"
     id="path16037" />
  <path
     d="M 13.427458,1.7259082 V 24.182541 c 0,1.084989 -1.686256,1.25171 -1.686256,0.159771 V 1.8856792 c 0,-1.0849896 1.686256,-1.2504403 1.686256,-0.159771"
     style="fill:#000000;fill-opacity:1;fill-rule:nonzero;stroke:none;stroke-width:0.352773"
     id="path16039" />
  <path
     d="M 8.4974511,1.7259082 V 24.182541 c 0,1.084989 -1.687491,1.25171 -1.687491,0.159771 V 1.8856792 c 0,-1.0849896 1.687491,-1.2504403 1.687491,-0.159771"
     style="fill:#000000;fill-opacity:1;fill-rule:nonzero;stroke:none;stroke-width:0.352773"
     id="path16041" />
</svg>
