<?xml version="1.0" encoding="UTF-8" standalone="no"?>
<!-- Created with Inkscape (http://www.inkscape.org/) -->

<svg
   width="65.514732"
   height="118.63726"
   viewBox="0 0 17.334107 31.389444"
   version="1.1"
   id="svg1615"
   xmlns="http://www.w3.org/2000/svg"
   xmlns:svg="http://www.w3.org/2000/svg">
  <defs
     id="defs1612" />
  <path
     d="M 3.894917,0.0327526 C 2.975402,0.5484079 2.055393,1.0630402 1.135383,1.5786954 0.940015,1.6874568 0.952609,2.0500419 1.217973,2.0500419 H 8.5055506 C 8.4597206,1.9044857 8.4143906,1.7594588 8.3680726,1.6129502 7.4853166,2.2020891 6.602067,2.7907694 5.71783,3.3799436 5.452431,3.5571791 5.77572,3.934863 6.040582,3.7586152 6.923338,3.1699349 7.8065876,2.5812899 8.6898376,1.9926096 8.8650616,1.8752757 8.7593346,1.5555179 8.5523596,1.5555179 H 1.265805 c 0.0272,0.1571273 0.05539,0.3147484 0.08259,0.4713465 C 2.2684,1.5122321 3.188409,0.9965768 4.108912,0.4819446 4.385878,0.3263343 4.175905,-0.1243393 3.894917,0.0327526"
     style="fill:#000000;fill-opacity:1;fill-rule:nonzero;stroke:none;stroke-width:0.352778"
     id="path31059" />
  <path
     d="m 9.5827526,24.451538 c -0.917504,1.708608 -1.834479,3.416194 -2.7524776,5.124767 -0.334856,0.623429 0.5846236,1.24079 0.9215256,0.612846 0.917505,-1.708079 1.83448,-3.416159 2.7519494,-5.124274 0.334892,-0.623887 -0.5841294,-1.241248 -0.9209974,-0.613339"
     style="fill:#000000;fill-opacity:1;fill-rule:nonzero;stroke:none;stroke-width:0.352778"
     id="path31061" />
  <path
     d="m 0.898352,7.6479909 c 0.426015,0.01461 0.761894,0.366571 0.761894,0.789058 v 0.02974 c -0.0014,0.04932 -0.07652,2.1612581 -0.07652,4.9167701 0,2.677936 0.075,5.947587 0.348438,8.536376 2.340575,-1.063026 5.037138,-1.815818 7.4980446,-1.742828 4.1846154,0.124389 7.5695534,2.429192 7.8757294,5.360952 0.147038,1.405432 -0.285009,2.747433 -1.215108,3.779732 -1.203995,1.336428 -3.168897,2.071652 -5.53466,2.071652 -5.392632,0 -8.561035,-2.035422 -9.683503,-6.221518 C 0.806207,24.92218 0.750324,24.63516 0.69342,24.350644 c -0.233644,-1.42307 0,0 -0.268922,-1.673331 C 0.084103,19.911253 0,16.298668 0,13.39767 0,10.695533 0.072,8.6123099 0.07955,8.4088629 0.09468,7.9727939 0.461255,7.6313759 0.898347,7.6479909 M 14.917036,28.260303 c 0.634506,-0.705485 0.917504,-1.591275 0.81728,-2.559614 -0.22105,-2.110917 -3.010288,-3.843197 -6.3509174,-3.942398 -2.3496406,-0.06999 -5.0018946,0.744291 -7.2321566,1.817864 0.07401,0.433564 0.155575,0.835907 0.24825,1.18237 0.936625,3.493206 3.452919,5.049732 8.156681,5.049732 1.912056,0 3.459974,-0.54991 4.360863,-1.547954"
     style="fill:#000000;fill-opacity:1;fill-rule:nonzero;stroke:none;stroke-width:0.352778"
     id="path31063" />
  <path
     d="m 4.674662,5.6838999 c -0.472828,-0.04332 -0.89281,0.306141 -0.936096,0.780521 -0.01764,0.195862 -0.438115,4.8236021 -0.412432,7.1797691 0.02519,2.382873 0.571041,5.458108 0.593195,5.587542 0.08361,0.468806 0.532765,0.780521 1.001078,0.696912 0.467819,-0.08357 0.780027,-0.531248 0.695925,-1.000054 -0.004,-0.03023 -0.542326,-3.065181 -0.565997,-5.30352 -0.02519,-2.26755 0.401355,-6.9572371 0.405377,-7.0035571 0.04329,-0.474839 -0.30667,-0.893833 -0.78105,-0.937613"
     style="fill:#000000;fill-opacity:1;fill-rule:nonzero;stroke:none;stroke-width:0.352778"
     id="path31065" />
  <path
     d="m 8.2601536,5.0970899 c -0.472863,-0.04332 -0.89281,0.306669 -0.9361306,0.78052 -0.01764,0.195898 -0.438115,4.8246251 -0.411903,7.1798051 0.02515,2.383331 0.5705116,5.458107 0.5926656,5.587506 0.08361,0.468807 0.532801,0.780521 1.001113,0.697442 0.467784,-0.0841 0.779992,-0.531777 0.69589,-1.00009 -0.004,-0.0302 -0.541832,-3.06518 -0.565997,-5.302991 -0.02515,-2.268044 0.401355,-6.9572371 0.405377,-7.0045801 0.04332,-0.473851 -0.30667,-0.893797 -0.781015,-0.937612"
     style="fill:#000000;fill-opacity:1;fill-rule:nonzero;stroke:none;stroke-width:0.352778"
     id="path31067" />
</svg>
