<?xml version="1.0" encoding="UTF-8" standalone="no"?>
<!-- Created with Inkscape (http://www.inkscape.org/) -->

<svg
   width="52.959599"
   height="92.118713"
   viewBox="0 0 14.012228 24.373076"
   version="1.1"
   id="svg1615"
   xmlns="http://www.w3.org/2000/svg"
   xmlns:svg="http://www.w3.org/2000/svg">
  <defs
     id="defs1612" />
  <path
     d="M 0.2333978,0.23283375 C 0.0781756,0.38921975 0,0.59284375 0,0.79650175 0,1.0001607 0.078176,1.2049838 0.2333978,1.3602058 c 0.035595,0.035 3.5997797,3.6062 5.4816728,6.099598 0.3728508,0.492513 0.8023225,1.161239 1.2417425,1.899391 C 5.7109784,11.45346 4.5940839,13.464294 4.042657,14.796488 c -0.8892822,2.15265 -1.331595,3.919573 -1.331595,5.339892 0,0.808743 0.1435453,1.504915 0.4288719,2.094265 0.4475692,0.926642 1.2254089,1.552187 2.3108003,1.862632 1.7225434,0.493077 3.2694739,0.332034 4.474457,-0.463903 1.2061828,-0.794773 1.9647608,-2.170148 2.1940658,-3.97443 0.02685,-0.209479 0.03969,-0.4318 0.03969,-0.665198 0,-2.67081 -1.69164,-6.64524 -3.3523411,-9.6153822 2.3661861,-3.914316 5.0288121,-7.914393 5.0719921,-7.979163 0.09045,-0.13596 0.133632,-0.289419 0.133632,-0.44054905 0,-0.257915 -0.124848,-0.51001 -0.354788,-0.664068 -0.365866,-0.243911 -0.861272,-0.14531 -1.104618,0.221156 C 12.38945,0.75565075 10.099675,4.2002078 7.8857828,7.8198488 7.5689178,7.3197508 7.2620012,6.8628688 6.9865523,6.4993307 5.0369964,3.9166447 1.5095714,0.38219975 1.3596056,0.23283375 c -0.3104445,-0.310445 -0.8145992,-0.310445 -1.1262078,0 M 5.8889548,22.56208 C 5.2494039,22.378847 4.8187681,22.04452 4.5742578,21.537402 4.4231278,21.224629 4.3069934,20.776495 4.3069934,20.137544 c 0,-1.018258 0.2946752,-2.520844 1.2085108,-4.731244 0.4510617,-1.091212 1.3269384,-2.699985 2.3428325,-4.437168 1.4080773,2.674902 2.7104973,5.915236 2.7104973,7.977434 0,0.178541 -0.0099,0.348933 -0.03034,0.508247 -0.168628,1.329867 -0.6844946,2.313693 -1.4903449,2.844694 -0.8058502,0.532765 -1.8981914,0.621454 -3.1591955,0.262573"
     style="fill:#000000;fill-opacity:1;fill-rule:nonzero;stroke:none;stroke-width:0.352778"
     id="path38530" />
</svg>
