<?xml version="1.0" encoding="UTF-8" standalone="no"?>
<svg
   xmlns:dc="http://purl.org/dc/elements/1.1/"
   xmlns:cc="http://creativecommons.org/ns#"
   xmlns:rdf="http://www.w3.org/1999/02/22-rdf-syntax-ns#"
   xmlns:svg="http://www.w3.org/2000/svg"
   xmlns="http://www.w3.org/2000/svg"
   version="1.1"
   id="svg2"
   height="47.701912"
   width="76.236008">
  <metadata
     id="metadata10">
    <rdf:RDF>
      <cc:Work
         rdf:about="">
        <dc:format>image/svg+xml</dc:format>
        <dc:type
           rdf:resource="http://purl.org/dc/dcmitype/StillImage" />
        <dc:title></dc:title>
      </cc:Work>
    </rdf:RDF>
  </metadata>
  <defs
     id="defs8" />
  <path
     style="fill:none;fill-rule:evenodd;stroke:#000000;stroke-width:3.00000048;stroke-linecap:round;stroke-linejoin:miter;stroke-miterlimit:4;stroke-dasharray:none;stroke-opacity:1;opacity:1"
     d="m 74.431074,40.779582 h 0.001"
     id="path7294-5-5" />
  <path
     id="path4-6-7"
     d="m 33.61911,16.494924 c 0,13.9388 6.54453,18.145065 13.244593,18.145065 14.33312,0 25.639025,-11.041315 28.372365,-18.223545 -2.089575,0.43787 -31.039168,0.474175 -41.616958,0.07848 z"
     style="opacity:1;fill:none;stroke:#000000;stroke-width:2;stroke-linecap:round;stroke-linejoin:round;stroke-miterlimit:4;stroke-dasharray:none" />
  <path
     style="opacity:1;fill:none;fill-rule:evenodd;stroke:#000000;stroke-width:2;stroke-linecap:round;stroke-linejoin:miter;stroke-miterlimit:4;stroke-dasharray:none;stroke-opacity:1"
     d="M 9.884035,40.779689 H 69.679007"
     id="path7294-5" />
  <g
     style="stroke:#000000;opacity:1"
     id="g6308"
     transform="translate(1.0089173e-5)">
    <path
       style="fill:none;fill-rule:evenodd;stroke:#000000;stroke-width:2;stroke-linecap:round;stroke-linejoin:round;stroke-miterlimit:4;stroke-dasharray:none;stroke-opacity:1"
       d="m 1.0142324,23.279392 h 7.91631"
       id="path4924" />
    <path
       style="fill:none;stroke:#000000;stroke-width:2;stroke-linecap:round;stroke-linejoin:round;stroke-miterlimit:4;stroke-dasharray:none"
       d="m 27.821572,1.0142394 c 0.16929,8.1273 0.38451,16.9111296 -0.24995,24.2981796 -0.39127,2.59859 -0.60446,4.57063 -2.30177,6.89168 -1.69732,2.32105 -3.68435,3.33565 -7.53509,3.01883 -3.85073,-0.31681 -6.55617,-2.60597 -7.7653696,-6.21265 -1.20921,-3.60667 -0.73294,-8.05715 -0.88701,-12.08889 -0.0931,-6.24362 -0.0615,-15.3274996 -0.26581,-15.7496496"
       id="path4-3" />
  </g>
  <path
     id="path7294-5-3-9"
     d="m 41.150482,46.20176 h 0.001"
     style="opacity:1;fill:none;fill-rule:evenodd;stroke:#000000;stroke-width:3.00000048;stroke-linecap:round;stroke-linejoin:miter;stroke-miterlimit:4;stroke-dasharray:none;stroke-opacity:1" />
</svg>
