<?xml version="1.0" encoding="UTF-8" standalone="no"?>
<svg
   xmlns:dc="http://purl.org/dc/elements/1.1/"
   xmlns:cc="http://creativecommons.org/ns#"
   xmlns:rdf="http://www.w3.org/1999/02/22-rdf-syntax-ns#"
   xmlns:svg="http://www.w3.org/2000/svg"
   xmlns="http://www.w3.org/2000/svg"
   width="49.66983"
   height="73.155792"
   viewBox="0 0 49.66983 73.15579"
   id="svg8947"
   version="1.1">
  <defs
     id="defs8949" />
  <metadata
     id="metadata8952">
    <rdf:RDF>
      <cc:Work
         rdf:about="">
        <dc:format>image/svg+xml</dc:format>
        <dc:type
           rdf:resource="http://purl.org/dc/dcmitype/StillImage" />
        <dc:title></dc:title>
      </cc:Work>
    </rdf:RDF>
  </metadata>
  <path
     d="M 44.20778,61.642094 A 23.842539,6.6375202 0 0 1 42.884393,69.84402 23.842539,6.6375202 0 0 1 13.936411,71.413315 23.842539,6.6375202 0 0 1 1.6546484,63.948936 23.842539,6.6375202 0 0 1 24.830373,58.871486"
     id="path27412"
     style="color:#000000;clip-rule:nonzero;display:inline;overflow:visible;visibility:visible;opacity:1;isolation:auto;mix-blend-mode:normal;color-interpolation:sRGB;color-interpolation-filters:linearRGB;solid-color:#000000;solid-opacity:1;fill:none;fill-opacity:1;fill-rule:evenodd;stroke:#000000;stroke-width:1.99998319;stroke-linecap:round;stroke-linejoin:round;stroke-miterlimit:4;stroke-dasharray:none;stroke-dashoffset:0;stroke-opacity:1;color-rendering:auto;image-rendering:auto;shape-rendering:auto;text-rendering:auto;enable-background:accumulate" />
  <path
     style="display:inline;fill:none;fill-rule:evenodd;stroke:#000000;stroke-width:2.99997449;stroke-linecap:round;stroke-linejoin:miter;stroke-miterlimit:4;stroke-dasharray:none;stroke-opacity:1"
     d="m 39.098771,60.191577 -9.18e-4,-2.83e-4"
     id="path7294-5-3-8-0-6-3" />
  <path
     style="display:inline;fill:none;fill-rule:evenodd;stroke:#000000;stroke-width:2.99997449;stroke-linecap:round;stroke-linejoin:miter;stroke-miterlimit:4;stroke-dasharray:none;stroke-opacity:1"
     d="m 33.253687,59.299815 -9.18e-4,-2.82e-4"
     id="path7294-5-3-8-0-6-3-0" />
  <path
     id="path4-6-7"
     d="m 22.831093,1 c 12,0 16,4.9999999 16,11 0,12 -10,23 -16,25 z"
     style="fill:none;stroke:#020202;stroke-width:2;stroke-linecap:round;stroke-linejoin:round;stroke-miterlimit:4;stroke-dasharray:none" />
  <path
     id="path6007-0-9-7-9-2-2-7-2-6"
     d="m 16.831092,47.045812 c 2.000001,3.000026 6.000002,3.000026 8.000002,2.5e-5 2,3.000051 6,3.000051 8,2.5e-5 2,3.000026 6,3.000026 8,-2.5e-5"
     style="color:#000000;clip-rule:nonzero;display:inline;overflow:visible;visibility:visible;opacity:1;isolation:auto;mix-blend-mode:normal;color-interpolation:sRGB;color-interpolation-filters:linearRGB;solid-color:#000000;solid-opacity:1;fill:none;fill-opacity:1;fill-rule:nonzero;stroke:#000000;stroke-width:2;stroke-linecap:round;stroke-linejoin:round;stroke-miterlimit:4;stroke-dasharray:none;stroke-dashoffset:0;stroke-opacity:1;color-rendering:auto;image-rendering:auto;shape-rendering:auto;text-rendering:auto;enable-background:accumulate" />
  <path
     d="m 40.824796,42.016953 -23.987406,0"
     style="fill:none;fill-rule:evenodd;stroke:#000000;stroke-width:1.99999976;stroke-linecap:round;stroke-linejoin:round;stroke-miterlimit:4;stroke-dasharray:none;stroke-opacity:1"
     id="path17057-2-8" />
</svg>
