<?xml version="1.0" encoding="UTF-8" standalone="no"?>
<svg
   xmlns:dc="http://purl.org/dc/elements/1.1/"
   xmlns:cc="http://creativecommons.org/ns#"
   xmlns:rdf="http://www.w3.org/1999/02/22-rdf-syntax-ns#"
   xmlns:svg="http://www.w3.org/2000/svg"
   xmlns="http://www.w3.org/2000/svg"
   version="1.1"
   id="svg2"
   height="52"
   width="52">
  <metadata
     id="metadata10">
    <rdf:RDF>
      <cc:Work
         rdf:about="">
        <dc:format>image/svg+xml</dc:format>
        <dc:type
           rdf:resource="http://purl.org/dc/dcmitype/StillImage" />
        <dc:title></dc:title>
      </cc:Work>
    </rdf:RDF>
  </metadata>
  <defs
     id="defs8" />
  <path
     d="m 29.621966,47.52182 a 3.578181,3.578181 0 0 1 -3.578181,3.578181 3.578181,3.578181 0 0 1 -3.578181,-3.578181 3.578181,3.578181 0 0 1 3.578181,-3.578181 3.578181,3.578181 0 0 1 3.578181,3.578181 z M 46.980527,27.026625 h -9.91632 M 14.187175,4.901983 c -0.206691,8.1273 -0.469471,16.91113 0.305158,24.29818 0.477725,2.59859 0.738002,4.723123 2.810306,7.044173 2.072304,2.32105 4.498323,3.640635 9.199784,3.323815 4.701461,-0.31681 7.77588,-2.910955 9.252225,-6.517625 1.476345,-3.60668 1.123593,-8.209653 1.311714,-12.241393 0.113668,-6.24362 -0.153649,-15.4037463 0.09579,-15.8258963"
     style="color:#000000;clip-rule:nonzero;display:inline;overflow:visible;visibility:visible;opacity:1;isolation:auto;mix-blend-mode:normal;color-interpolation:sRGB;color-interpolation-filters:linearRGB;solid-color:#000000;solid-opacity:1;fill:none;fill-opacity:1;fill-rule:nonzero;stroke:#000000;stroke-width:1.79999995;stroke-linecap:round;stroke-linejoin:round;stroke-miterlimit:4;stroke-dasharray:none;stroke-dashoffset:0;stroke-opacity:1;color-rendering:auto;image-rendering:auto;shape-rendering:auto;text-rendering:auto;enable-background:accumulate"
     id="path6007-0" />
</svg>
