<?xml version="1.0" encoding="UTF-8" standalone="no"?>
<svg
   xmlns:dc="http://purl.org/dc/elements/1.1/"
   xmlns:cc="http://creativecommons.org/ns#"
   xmlns:rdf="http://www.w3.org/1999/02/22-rdf-syntax-ns#"
   xmlns:svg="http://www.w3.org/2000/svg"
   xmlns="http://www.w3.org/2000/svg"
   version="1.1"
   id="svg2"
   height="51.999996"
   width="43.438862">
  <metadata
     id="metadata10">
    <rdf:RDF>
      <cc:Work
         rdf:about="">
        <dc:format>image/svg+xml</dc:format>
        <dc:type
           rdf:resource="http://purl.org/dc/dcmitype/StillImage" />
        <dc:title></dc:title>
      </cc:Work>
    </rdf:RDF>
  </metadata>
  <defs
     id="defs8" />
  <path
     style="fill:none;fill-rule:evenodd;stroke:#000000;stroke-width:3.00000048;stroke-linecap:round;stroke-linejoin:miter;stroke-miterlimit:4;stroke-dasharray:none;stroke-opacity:1"
     d="m 1.5001502,20.203041 v 0.001"
     id="path7294-5" />
  <circle
     r="3.578181"
     cy="45.35601"
     cx="22.440632"
     id="path6007-0"
     style="color:#000000;clip-rule:nonzero;display:inline;overflow:visible;visibility:visible;opacity:1;isolation:auto;mix-blend-mode:normal;color-interpolation:sRGB;color-interpolation-filters:linearRGB;solid-color:#000000;solid-opacity:1;fill:none;fill-opacity:1;fill-rule:nonzero;stroke:#000000;stroke-width:1.79999995;stroke-linecap:round;stroke-linejoin:round;stroke-miterlimit:4;stroke-dasharray:none;stroke-dashoffset:0;stroke-opacity:1;color-rendering:auto;image-rendering:auto;shape-rendering:auto;text-rendering:auto;enable-background:accumulate" />
  <path
     d="m 27.642166,7.2062207 h -4.486985 -4.486985 m 4.486985,0 a 12.935716,15.867623 0 0 1 -5.40222,14.2605103 12.935716,15.867623 0 0 1 -12.7566808,1.5537 M 13.617276,3.1800407 c -0.16929,8.1273003 -0.38452,16.9111303 0.24994,24.2981803 0.39128,2.59859 0.60446,4.57063 2.30178,6.89168 1.69732,2.32105 3.68435,3.33565 7.53508,3.01883 3.85073,-0.31681 6.55618,-2.60597 7.76538,-6.21264 1.2092,-3.60668 0.73293,-8.05716 0.88701,-12.0889 0.0931,-6.24362 0.0615,-15.3275003 0.26581,-15.7496503 m 9.80234,21.8146493 h -9.91632"
     style="fill:none;fill-rule:evenodd;stroke:#000000;stroke-width:2;stroke-linecap:round;stroke-linejoin:round;stroke-miterlimit:4;stroke-dasharray:none;stroke-opacity:1"
     id="path13718-9-0-5" />
</svg>
